<?xml version="1.0" encoding="UTF-8" standalone="no"?>
<svg
   xmlns:dc="http://purl.org/dc/elements/1.1/"
   xmlns:cc="http://creativecommons.org/ns#"
   xmlns:rdf="http://www.w3.org/1999/02/22-rdf-syntax-ns#"
   xmlns:svg="http://www.w3.org/2000/svg"
   xmlns="http://www.w3.org/2000/svg"
   xmlns:xlink="http://www.w3.org/1999/xlink"
   xmlns:sodipodi="http://sodipodi.sourceforge.net/DTD/sodipodi-0.dtd"
   xmlns:inkscape="http://www.inkscape.org/namespaces/inkscape"
   version="1.1"
   width="841.88977"
   height="1190.5511"
   id="svg394"
   viewBox="0 0 841.88977 1190.5511"
   sodipodi:docname="vector_hatake_kakashi_avatar.cdr">
  <metadata
     id="metadata398">
    <rdf:RDF>
      <cc:Work
         rdf:about="">
        <dc:format>image/svg+xml</dc:format>
        <dc:type
           rdf:resource="http://purl.org/dc/dcmitype/StillImage" />
      </cc:Work>
    </rdf:RDF>
  </metadata>
  <sodipodi:namedview
     pagecolor="#ffffff"
     bordercolor="#666666"
     borderopacity="1"
     objecttolerance="10"
     gridtolerance="10"
     guidetolerance="10"
     inkscape:pageopacity="0"
     inkscape:pageshadow="2"
     inkscape:window-width="640"
     inkscape:window-height="480"
     id="namedview396" />
  <path
     d="m 465.3062,1014.0633 1.9406,12.0005 -8.2692,13.9941 8.0345,-13.9439 -1.8374,-12.0864 c -51.0749,20.0724 -68.1778,56.5883 -71.5473,85.6922 l 8.7378,1.7212 c 9.9658,0.9538 21.6448,0.3262 29.8964,2.8624 l 33.435,1.9083 c 27.5785,-0.064 55.1576,-0.6027 82.7373,-2.8318 -1.4335,-8.8319 -0.7361,-19.664 2.738,-31.3419 l 34.4268,-101.313 c 7.7544,-18.1718 18.6777,-33.6756 38.3612,-41.804 22.3283,-6.0619 44.9861,-8.8299 67.87,-9.3444 16.3536,-7.5104 5.0513,-11.7377 -8.326,-14.4564 l -31.6774,-3.3755 -49.7336,1.7297 c -19.4851,24.4664 -41.8337,43.9756 -64.6231,61.9251 -23.1486,10.5764 -43.4421,10.9372 -65.3882,1.0823 -0.1366,-0.2095 -14.3314,-18.0865 -14.5105,-18.3424 0.8623,6.8978 8.8293,65.5015 7.7351,65.9239 z"
     style="fill:#252934;fill-rule:evenodd"
     id="path2" />
  <path
     d="m 505.281,1038.4727 28.5398,-24.548 25.0066,-17.8486 c -12.9469,20.5228 -27.5238,37.989 -43.2153,53.3633 -16.7303,15.5435 -29.213,31.0873 -38.1764,46.6322 l -2.6941,2.694 -2.694,-6.0111 8.2114,-29.1509 c 0,0 24.8014,-24.941 25.022,-25.1309 z"
     style="fill:#121923;fill-rule:evenodd"
     id="path4" />
  <path
     d="m 462.6088,982.7345 15.5044,22.3552 1.0817,19.4706 12.2592,20.5523 34.7386,-24.5917 -27.8878,26.7551 -15.5044,17.3072 -10.9216,28.177 -19.0054,-37.5517 -1.8029,46.5131 -11.5381,-11.8987 -14.7832,-1.0817 -14.0622,-10.4564 15.865,-20.1918 c 0,0 -1.4423,-8.6536 0.3606,-10.4564 1.8028,-1.8029 20.9128,-8.2931 20.9128,-8.2931 l 11.1776,0.3606 8.3007,-13.9198 z"
     style="fill:#4e5364;fill-rule:evenodd"
     id="path6" />
  <path
     d="m 393.4743,1105.4812 c 0.3011,-22.5649 -11.5183,-104.6543 -13.9135,-149.4235 -0.9117,-17.0425 10.8527,-20.5396 21.6087,-28.1203 l 34.9186,-18.6888 226.2331,-7.869 c 9.9048,2.4747 56.0052,6.0285 29.5087,18.197 -22.8839,0.5145 -45.5417,3.2825 -67.87,9.3444 -19.6835,8.1284 -30.6068,23.6322 -38.3612,41.804 l -34.4268,101.313 c -6.3938,21.4926 -3.3834,40.1267 5.0091,48.6808 14.0567,14.4919 29.5455,12.3078 47.1229,11.6677 43.2791,-9.3747 86.5581,-26.1674 129.8381,-47.5614 17.2531,-7.9659 28.6463,-20.5361 31.4759,-39.8367 2.9494,-30.9835 3.9328,-61.9676 2.9509,-92.9522 0.5728,-19.7949 -10.9755,-34.6312 -28.0333,-47.2139 -11.8794,-4.9541 -41.5491,-12.4498 -92.6895,-23.0136 l -223.1716,15.1279 c -49.9011,12.9985 -118.8117,33.3703 -105.99,89.8123 l 13.3393,104.7348 c 1.6041,23.4227 11.8321,36.9142 32.468,38.4205 13.1292,0.4402 23.777,-5.2492 29.9826,-24.423 z"
     style="fill:#54633a;fill-rule:evenodd;stroke:#1b1918;stroke-width:1.2472;stroke-linecap:butt;stroke-linejoin:miter;stroke-dasharray:none"
     id="path8" />
  <path
     d="m 579.5459,1132.3823 c -2.0716,-4.4181 -2.3664,-9.6758 0.9258,-16.6292 l 43.8905,-118.3136 c 5.6327,-16.5373 12.3491,-32.269 40.6618,-31.9405 4.1208,-0.4538 8.242,-0.5102 12.3636,-0.3863 l 32.8473,-18.8788 c 9.5706,-3.2148 19.4301,-4.6993 29.5784,-4.4526 l -12.4038,-8.9054 c 8.1629,0.7524 16.3258,1.0364 24.4896,0.6361 l -25.7618,-20.673 -9.8595,-2.5852 -15.9023,2.683 c -0.2997,0.4348 -0.5752,0.8382 -0.8391,1.2149 4.3529,-7.9036 -28.9695,-10.7119 -37.2152,-12.7721 l -1.3059,0.0454 0.8708,-16.4668 c 41.9882,8.9224 66.9869,15.4174 77.6494,19.8641 17.0578,12.5827 28.6061,27.419 28.0333,47.2139 0.9819,30.9846 -0.001,61.9687 -2.9509,92.9522 -2.8296,19.3006 -14.2228,31.8708 -31.4759,39.8367 -43.28,21.394 -86.559,38.1867 -129.8381,47.5614 -8.3696,0.3047 -16.2647,0.9578 -23.758,-0 z M 698.8198,915.1336 c -1.0687,1.3822 -2.1506,2.3255 -4.214,3.0515 1.9834,-1.0894 3.3631,-2.1047 4.214,-3.0515 z m -12.6351,4.6162 c -5.4233,0.6021 -11.7939,0.9017 -18.1182,1.222 6.0213,-0.5847 12.0617,-0.9853 18.1182,-1.222 z"
     style="fill:#212320;fill-rule:evenodd"
     id="path10" />
  <path
     d="m 662.3629,892.5928 74.6373,13.7015 c 6.2907,3.8407 9.6333,8.0289 6.4902,12.9804 -14.7503,2.7077 -27.3302,8.0201 -39.3018,14.0622 -23.5193,2.5591 -45.4065,9.1955 -66.7049,17.3072 -15.3564,5.8413 -24.5503,16.5257 -30.2876,29.927 l -42.2379,115.5005 c -3.1139,9.5678 -4.3251,19.1353 -4.235,28.7036 -2.7309,-2.4349 -5.248,-4.9232 -7.2935,-7.5288 2.196,-9.7248 2.8896,-18.0975 6.5877,-29.1742 l 41.0134,-112.3033 c 6.6296,-13.373 8.9356,-20.5265 31.286,-31.547 21.0704,-8.0799 42.6172,-15.109 66.4684,-17.0708 l 34.1901,-13.676 c 0.3793,-2.8347 -0.6279,-5.1143 -3.0214,-6.8381 L 663.482,894.0742 Z"
     style="fill:none;stroke:#1b1918;stroke-width:1.1339;stroke-linecap:butt;stroke-linejoin:miter;stroke-dasharray:none"
     id="path12" />
  <path
     d="m 393.8715,1103.1086 c 2.5222,-28.6741 17.1592,-65.2031 66.1884,-86.3246 17.0317,-7.3361 14.1072,-17.8537 13.7384,-21.9348 l -1.783,-28.6582 c -4.5306,-6.4715 -22.4178,-27.5942 -41.5724,-53.2829 l -28.8578,15.4449 c -10.7561,7.5807 -22.5204,11.0778 -21.6088,28.1202 2.3057,43.0937 13.3404,120.7565 13.8952,146.6354 z"
     style="fill:#212320;fill-rule:evenodd"
     id="path14" />
  <path
     d="m 424.7271,905.3059 c -19.1704,6.1804 -36.8206,13.8815 -52.952,23.1024 -15.8828,8.0844 -16.2005,19.0944 -14.2954,30.5226 0.7747,54.9229 6.5492,105.1395 13.0374,154.6843 1.0749,5.5497 2.8301,10.419 5.5786,14.2951 l -6.9732,1.9177 c -2.3571,-5.7104 -4.4,-12.5717 -5.753,-21.9657 -5.7174,-46.4777 -10.5936,-94.8679 -12.6243,-149.7257 -0.4363,-11.8862 0.3245,-20.2099 7.7006,-27.3617 18.1689,-11.7986 39.3474,-21.7928 62.6258,-30.5249 1.2172,1.698 2.4364,3.3843 3.6555,5.0559 z"
     style="fill:none;stroke:#1b1918;stroke-width:1.1339;stroke-linecap:butt;stroke-linejoin:miter;stroke-dasharray:none"
     id="path16" />
  <path
     d="m 488.2116,1100.706 41.9683,-15.7011 28.8091,-48.6335 -34.5416,36.0726 z"
     style="fill:#1b1918;fill-rule:evenodd"
     id="path18" />
  <defs
     id="defs30">
    <linearGradient
       id="grad1">
      <stop
         offset="0.0000%"
         stop-color="#b9c170"
         stop-opacity="1.0000"
         id="stop20" />
      <stop
         offset="35.0000%"
         stop-color="#b9c170"
         stop-opacity="1.0000"
         id="stop22" />
      <stop
         offset="70.0000%"
         stop-color="#fef9d7"
         stop-opacity="1.0000"
         id="stop24" />
      <stop
         offset="100.0000%"
         stop-color="#fffcdb"
         stop-opacity="1.0000"
         id="stop26" />
    </linearGradient>
    <linearGradient
       xlink:href="#grad1"
       id="grad2"
       x1="0"
       y1="0"
       x2="0"
       y2="1"
       gradientTransform="rotate(-45,0.5,0.5)"
       gradientUnits="objectBoundingBox" />
  </defs>
  <path
     d="m 548.7979,1104.3624 c 1.9032,-6.1892 4.7146,-15.2887 7.0169,-24.4018 9.578,-37.9089 28.2889,-79.7323 45.2511,-121.4209 3.1646,-3.435 7.7318,-4.667 13.7016,-3.6958 l -2.1634,8.6536 9.0141,3.2451 18.0284,-0.3606 -11.8987,-3.9662 -2.524,-3.9663 -2.8845,-2.1634 -3.2451,-5.4085 -6.4001,-2.9446 c 0.1599,-2.4035 3.0745,-5.1075 6.0395,-7.5118 16.6513,-12.2074 44.6468,-15.1696 66.4087,-19.6577 -20.49,0.887 -40.7886,3.6731 -60.8225,9.1122 -19.6835,8.1284 -30.6068,23.6322 -38.3612,41.804 l -34.4268,101.3131 c -3.4775,11.6892 -4.1732,22.5331 -2.734,31.3696 z"
     style="fill:url(#grad2)"
     id="path32" />
  <defs
     id="defs42">
    <linearGradient
       id="grad3">
      <stop
         offset="0.0000%"
         stop-color="#fffcdb"
         stop-opacity="1.0000"
         id="stop34" />
      <stop
         offset="18.0000%"
         stop-color="#fffcdb"
         stop-opacity="1.0000"
         id="stop36" />
      <stop
         offset="100.0000%"
         stop-color="#dccf70"
         stop-opacity="1.0000"
         id="stop38" />
    </linearGradient>
    <linearGradient
       xlink:href="#grad3"
       id="grad4"
       x1="0"
       y1="0"
       x2="0"
       y2="1"
       gradientTransform="rotate(-92,0.5,0.5)"
       gradientUnits="objectBoundingBox" />
  </defs>
  <path
     d="m 422.5938,897.5959 c -49.6641,13.0318 -116.0765,33.6549 -103.4694,89.153 l 13.3393,104.7348 c 1.0088,14.7305 5.4303,25.5311 13.7049,31.8949 l 0.3646,0.032 c -4.3172,-6.838 -8.3078,-23.4779 -11.905,-51.9488 -2.8298,-15.3649 -11.0681,-94.7971 -5.0522,-97.4285 l 15.9665,-6.9834 c 5.1899,-2.2697 12.6198,-16.8265 12.6198,-16.8265 l 5.709,-2.7043 6.0094,-3.3051 3.0047,-2.7043 3.3052,0.9014 0.9015,7.8123 3.6056,-8.4132 -3.0047,-3.0048 -5.709,-3.3051 -20.1316,7.2113 c -2.105,-14.0959 26.5649,-27.4068 72.1134,-42.3666 z"
     style="fill:url(#grad4)"
     id="path44" />
  <path
     d="m 765.0289,598.6664 -24.5622,37.3345 -19.6498,63.3705 -36.8433,31.4397 0.8876,14.7806 28.0947,21.6114 16.7488,42.6824 1.6208,17.8293 12.9668,15.6683 19.4503,2.1611 -24.8531,10.2654 -16.7488,-3.782 -14.0473,-4.3223 -52.4075,-4.3222 -31.8768,-111.8387 11.346,-60.5118 45.3838,-38.9004 19.4502,-5.9431 55.6492,-23.2322 z"
     style="fill:#5a5d64;fill-rule:evenodd"
     id="path46" />
  <path
     d="m 762.8329,845.4657 0.3413,0.038 0.0927,0.5037 -23.9117,9.8764 -16.7487,-3.7819 -14.0474,-4.3223 -52.4075,-4.3223 -22.2891,-78.201 5.9559,-21.8387 33.1625,7.6615 29.5047,19.9468 17.0379,48.2048 -29.0891,-29.9202 27.8424,37.8159 16.1771,23.1213 z"
     style="fill:#242d2f;fill-rule:evenodd"
     id="path48" />
  <path
     d="m 684.4564,855.034 -15.3048,-84.1765 -39.1624,43.2136 10.3533,103.9828 10.3532,-39.6125 9.453,40.5127 3.151,-60.7691 13.5043,28.8091 0.4501,-50.4159 z"
     style="fill:#d8b98c;fill-rule:evenodd"
     id="path50" />
  <path
     d="m 640.7765,802.1645 -10.785,11.9007 10.3533,103.9827 0.0365,-0.14 z"
     style="fill:#242d2f;fill-rule:evenodd"
     id="path52" />
  <path
     d="m 741.7168,634.1006 -1.2501,1.9003 -19.6498,63.3705 -36.8433,31.4397 0.0814,1.3543 c -0.1086,-0.8784 -0.2132,-1.775 -0.3025,-2.6903 -4.2505,-17.5697 -10.2503,-33.7108 -17.8166,-48.3061 3.6227,-8.7491 55.6626,-51.1503 57.1765,-48.8786 l -16.6943,47.6456 34.4769,-58.1826 z"
     style="fill:#242d2f;fill-rule:evenodd"
     id="path54" />
  <path
     d="m 475.2312,719.1179 c -46.0792,27.6871 -93.5734,54.2936 -123.1846,94.5496 -0.8723,-15.846 0.5062,-31.4666 8.1042,-46.4644 -11.3902,4.5028 -24.1169,14.7736 -35.085,20.9707 7.1898,-13.3515 17.1346,-28.9973 26.4405,-41.5015 -33.9322,-5.383 -69.8409,-22.1292 -106.9762,-45.9241 20.4619,1.9264 40.5735,1.749 59.4312,-5.9431 -49.6063,-21.0271 -84.8316,-46.33 -110.2178,-74.5591 22.7784,6.4978 55.3754,7.7587 97.7913,3.782 -51.2059,-34.8767 -91.4295,-78.122 -124.8412,-126.5579 32.7387,24.0945 96.4242,25.6819 166.5318,22.5972 l -14.5948,0.7495 c -38.0007,-22.1286 -57.1875,-26.0858 -102.4033,-38.0622 62.2517,-2.3791 126.7121,-2.757 174.4736,11.768 l 48.6332,20.1411 -48.5989,-20.3106 c -30.8908,-23.481 -50.8212,-50.8773 -70.9458,-78.205 26.2324,30.0535 78.19,36.3016 124.6008,51.0766 26.1485,8.3242 48.7392,16.0237 74.6039,30.3769 l 57.2701,48.3554 -56.6615,-48.3089 c -15.9814,-28.6537 -35.2264,-54.0442 -58.4093,-75.4965 53.3793,21.1986 104.7479,50.9754 144.5826,129.9654 -12.7568,-32.9205 -27.9814,-63.7847 -43.5337,-94.3759 38.9733,39.6335 71.3985,85.2458 90.8805,142.676 L 641.8633,571.642 c 4.8489,-26.4827 3.8939,-53.6916 3.3154,-80.8534 17.4767,37.9202 23.938,87.7033 19.3836,149.3489 4.604,-18.4297 23.7764,-36.86 49.5711,-55.2909 -21.2904,24.5739 -24.7858,58.6806 -37.1783,88.0206 10.5451,-9.5522 22.8001,-18.3725 36.225,-26.6921 -17.8101,19.3858 -30.5093,53.6062 -38.7728,72.2704 z"
     style="fill:#d8c6b7;fill-rule:evenodd;stroke:#9c9e9f;stroke-width:0.6803;stroke-linecap:butt;stroke-linejoin:miter;stroke-dasharray:none"
     id="path56" />
  <path
     d="m 352.0466,813.6675 c -0.8723,-15.846 0.5062,-31.4666 8.1042,-46.4644 -11.3902,4.5028 -24.1169,14.7736 -35.085,20.9707 7.1898,-13.3515 17.1346,-28.9973 26.4405,-41.5015 -33.9322,-5.383 -69.8409,-22.1292 -106.9762,-45.9241 20.4619,1.9264 68.2113,8.5521 87.069,0.8601 -8.5683,-4.5219 -34.1274,-7.272 -72.4178,-38.5025 22.7784,6.4979 99.7659,14.2642 118.0732,4.5474 -36.7883,-17.2225 -73.3541,-27.1982 -117.6525,-67.9839 32.7387,24.0945 144.4685,31.7166 214.5761,28.6319 L 364.4223,560.1458 c 12.7684,2.8213 30.6443,3.7018 45.5301,3.8257 38.041,0.3172 72.4011,-1.882 91.1024,4.8818 -16.0619,-13.0833 -32.7603,-21.0637 -49.7494,-26.7256 19.1993,3.9665 38.3972,9.6724 57.5968,19.2047 -20.5356,-38.5126 -54.1581,-63.1681 -90.498,-84.9481 55.5692,13.2537 108.6641,32.5783 154.0222,70.8954 -27.0358,-36.8587 -52.5059,-71.2837 -82.3235,-108.1438 43.9064,22.6781 83.0299,58.9054 115.8069,113.1169 -2.7888,-22.0995 -9.5769,-44.1995 -17.8104,-66.3001 27.3308,34.5824 50.6211,71.7168 65.0234,114.4644 L 641.8633,571.642 c 4.8489,-26.4827 3.8939,-53.6916 3.3154,-80.8534 17.4767,37.9202 23.938,87.7033 19.3836,149.3489 4.604,-18.4297 23.7764,-36.86 49.5711,-55.2909 -21.2904,24.5739 -24.7858,58.6806 -37.1783,88.0206 10.5451,-9.5522 22.8001,-18.3725 36.225,-26.6921 -17.8101,19.3858 -30.5093,53.6062 -38.7728,72.2704 -129.0297,0.8101 -227.8035,-21.6097 -322.3607,95.222 z"
     style="fill:#78654e;fill-rule:evenodd"
     id="path58" />
  <path
     d="m 693.3589,624.9234 c -5.3181,15.7026 -9.3419,32.097 -15.7318,47.2252 10.5452,-9.5522 22.8002,-18.3724 36.2251,-26.6921 -15.6696,17.056 -27.3821,45.5935 -35.5992,64.9182 -5.4734,-16.3148 -12.5886,-31.1913 -21.1821,-44.5034 l -0.8127,61.6947 -22.4218,37.2795 -12.1564,15.1279 -12.1563,-52.4074 -1.685,-29.5433 45.324,-37.9519 c -0.5524,-0.7866 -1.1109,-1.5667 -1.6744,-2.3414 14.7016,-14.5211 31.9649,-27.775 41.8706,-32.806 z"
     style="fill:#d8b98c;fill-rule:evenodd"
     id="path60" />
  <path
     d="m 693.5377,624.642 c -6.1645,21.5662 -14.0573,44.3279 -22.1723,66.2558 13.9266,-10.2929 26.8725,-28.6818 42.4046,-45.7404 -17.2984,23.6401 -27.8572,45.7064 -35.3602,66.2 l -9.1848,-9.1848 -11.0758,-23.2322 c 4.2845,-0.7035 16.3117,-19.3382 35.3885,-54.2984 z"
     style="fill:#78654e;fill-rule:evenodd"
     id="path62" />
  <path
     d="m 622.4689,772.882 c 5.2742,-15.1194 13.2715,-66.8236 10.671,-71.2573 -2.6005,-4.4337 22.2381,33.7204 19.1529,33.9775 -3.0852,0.2571 -29.8239,37.2798 -29.8239,37.2798 z"
     style="fill:#78654e;fill-rule:evenodd"
     id="path64" />
  <defs
     id="defs82">
    <linearGradient
       id="grad5">
      <stop
         offset="0.0000%"
         stop-color="#efc388"
         stop-opacity="1.0000"
         id="stop66" />
      <stop
         offset="22.0000%"
         stop-color="#efc389"
         stop-opacity="1.0000"
         id="stop68" />
      <stop
         offset="50.0000%"
         stop-color="#f8e7d0"
         stop-opacity="1.0000"
         id="stop70" />
      <stop
         offset="65.0000%"
         stop-color="#fefcfa"
         stop-opacity="1.0000"
         id="stop72" />
      <stop
         offset="75.0000%"
         stop-color="#faebd7"
         stop-opacity="1.0000"
         id="stop74" />
      <stop
         offset="83.0000%"
         stop-color="#f0c68e"
         stop-opacity="1.0000"
         id="stop76" />
      <stop
         offset="100.0000%"
         stop-color="#efc388"
         stop-opacity="1.0000"
         id="stop78" />
    </linearGradient>
    <linearGradient
       xlink:href="#grad5"
       id="grad6"
       x1="0"
       y1="0"
       x2="0"
       y2="1"
       gradientTransform="rotate(-70,0.5,0.5)"
       gradientUnits="objectBoundingBox" />
  </defs>
  <path
     d="m 372.9172,731.2567 c 3.2017,25.1487 4.7426,51.0244 6.8114,76.6729 1.773,18.6009 1.9924,28.7529 12.7964,48.1524 26.1893,47.0248 73.5809,101.2382 79.5566,110.3998 21.9461,9.8549 42.2396,9.4941 65.3882,-1.0823 39.8477,-31.3855 78.3558,-67.5337 102.5442,-126.6253 11.3331,2.6583 17.0985,-2.5642 19.6497,-13.0796 6.6101,-9.0921 14.4006,-16.7278 17.1709,-30.2995 0.5828,-14.7209 -0.6185,-29.1867 -4.4263,-43.2794 -5.5627,-11.3494 -13.7285,-14.4525 -22.6233,-15.2462 -15.3842,7.8364 -23.1863,20.922 -27.5414,36.3941 -2.4764,-21.7616 -5.1659,-42.9894 -9.3445,-60.4928 -51.1228,-80.8702 -240.9219,-15.296 -239.9819,18.4859 z"
     style="fill:url(#grad6)"
     id="path84" />
  <path
     d="m 286.0764,579.1453 c 17.4606,9.364 39.8823,14.3521 59.6118,16.3471 -18.6665,-3.988 -40.9465,-9.5258 -59.6118,-16.3471 z"
     style="fill:#fcf4e4;fill-rule:evenodd"
     id="path86" />
  <path
     d="m 264.3914,559.7563 c 17.4605,9.364 39.8823,14.3521 59.6117,16.3472 -18.6664,-3.9881 -40.9464,-9.5259 -59.6117,-16.3472 z"
     style="fill:#fcf4e4;fill-rule:evenodd"
     id="path88" />
  <path
     d="m 283.2701,558.991 c 18.582,9.9653 42.4437,15.2738 63.4402,17.397 -19.8652,-4.2442 -43.5761,-10.1376 -63.4402,-17.397 z"
     style="fill:#fcf4e4;fill-rule:evenodd"
     id="path90" />
  <path
     d="m 247.4056,538.1708 c -21.8137,-0.8731 93.7817,30.2902 110.0214,25.0577 l -53.2576,-25.0577 c -4.5383,-2.1353 94.8458,-6.8754 133.2992,-5.4213 L 398.882,512.0212 c 25.6742,3.8968 50.9508,11.7782 75.8976,22.9606 -14.1174,-6.4358 -18.0822,-12.575 -32.2976,-20.5373 -10.7462,-6.0193 -37.1926,-15.0718 -46.1807,-21.6031 -23.8833,-17.3551 -41.2251,-35.513 -56.8321,-55.7118 5.4511,2.8593 17.9572,9.659 33.3848,13.977 58.3322,16.3268 127.9528,37.0109 166.7625,64.7309 -3.6978,-4.4093 -8.2562,-8.1839 -12.8563,-11.8245 -2.4094,-1.9065 -4.0606,-3.727 -7.2649,-5.6916 -32.6115,-19.9971 -88.2714,-35.8546 -148.051,-51.9166 -21.5583,-5.7926 -34.0608,-13.1731 -48.5229,-26.2083 18.6486,24.8621 36.2106,49.7716 67.4983,74.0829 -49.7353,-13.5674 -108.1698,-14.0856 -169.384,-10.4343 71.2707,-0.0502 131.1118,6.3624 172.8621,19.8252 19.0143,6.1311 2.7859,2.198 -20.6087,0.8836 -20.1654,-1.1327 -44.3364,-3.1961 -45.1276,-2.9704 -1.7472,0.4983 73.9525,17.5339 65.0407,20.5208 -8.9118,2.9869 -88.9546,6.7006 -132.7252,8.9912 l 24.9038,3.6346 c 3.9861,5.9536 12.3106,10.4258 22.6077,15.8947 -19.9786,-1.9902 -40.1202,-5.6109 -60.5829,-12.454 z"
     style="fill:#fcf4e4;fill-rule:evenodd"
     id="path92" />
  <path
     d="m 373.5295,736.2454 c 2.7513,23.21 4.2205,46.0176 6.1092,69.6084 0.0218,-0.0958 0.0612,-0.1846 0.1247,-0.2645 1.8032,-2.2646 3.8455,-4.453 6.0894,-6.5996 -0.4632,-19.7723 -2.829,-38.1436 -6.2229,-56.3556 -0.6159,-3.3058 -1.114,-6.6399 -1.6444,-9.9746 -1.4924,1.1767 -2.9772,2.3726 -4.456,3.5859 z m 6.3232,72.0399 c 0.0125,0.1335 0.025,1.2305 0.0374,1.3635 0.002,0.0235 0.005,0.0473 0.007,0.0709 0.009,0.098 0.0181,0.1958 0.0272,0.2933 0.009,0.0976 0.0184,0.1956 0.0275,0.2926 0.006,0.0618 0.011,0.1236 0.017,0.1851 0.0258,0.2789 0.0513,0.5559 0.0768,0.8314 z m 0.3356,4.5904 c 0.0258,0.2801 0.0516,0.5582 0.0774,0.8346 -0.0258,-0.2761 -0.0516,-0.5545 -0.0774,-0.8346 z m 0.0814,0.8768 c 0.0672,0.7226 0.1341,1.4329 0.2013,2.1331 -0.0672,-0.7005 -0.1341,-1.4105 -0.2013,-2.1331 z m 0.2217,2.3445 c 0.0235,0.245 0.0476,0.4893 0.0714,0.7317 z m 0.0856,0.8742 c 0.0462,0.4695 0.0927,0.9343 0.1403,1.3953 -0.0476,-0.461 -0.0941,-0.9258 -0.1403,-1.3953 z m 0.1556,1.5429 c 0.0179,0.1721 0.036,0.3442 0.0541,0.5154 -0.0184,-0.1715 -0.0362,-0.3433 -0.0541,-0.5154 z m 0.0626,0.5942 c 0.1826,1.7183 0.3785,3.3823 0.6033,5.0153 -0.2245,-1.6327 -0.4207,-3.297 -0.6033,-5.0153 z m 0.6061,5.0363 c 0.0281,0.203 0.0567,0.4056 0.0856,0.608 -0.0289,-0.2024 -0.0575,-0.405 -0.0856,-0.608 z"
     style="fill:#ece2bd;fill-rule:evenodd"
     id="path94" />
  <defs
     id="defs104">
    <linearGradient
       id="grad7">
      <stop
         offset="0.0000%"
         stop-color="#fba870"
         stop-opacity="1.0000"
         id="stop96" />
      <stop
         offset="59.0000%"
         stop-color="#fba770"
         stop-opacity="1.0000"
         id="stop98" />
      <stop
         offset="100.0000%"
         stop-color="#4c638b"
         stop-opacity="1.0000"
         id="stop100" />
    </linearGradient>
    <linearGradient
       xlink:href="#grad7"
       id="grad8"
       x1="0"
       y1="0"
       x2="0"
       y2="1"
       gradientTransform="rotate(-49,0.5,0.5)"
       gradientUnits="objectBoundingBox" />
  </defs>
  <path
     d="m 639.6395,839.6753 c 0.0802,-0.1907 0.159,-0.3815 0.2384,-0.5731 -0.0794,0.191 -0.1588,0.3821 -0.2384,0.5731 z m 0.2477,-0.5961 c 0.0219,-0.0524 0.0437,-0.1049 0.0655,-0.1579 -0.0218,0.0525 -0.0436,0.1055 -0.0655,0.1579 z m 0.1268,-0.305 c 11.3331,2.6583 17.0985,-2.5642 19.6497,-13.0796 6.6101,-9.0921 14.4006,-16.7278 17.1709,-30.2995 0.578,-14.6027 -0.6001,-28.954 -4.3359,-42.9395 l -3.4877,-5.2317 -11.7335,-8.9396 c -1.3722,-0.4334 -2.7782,-0.7585 -4.2111,-0.9995 l -4.8719,0.4298 c -14.3363,7.9134 -21.7486,20.6197 -25.9509,35.549 -2.4228,-21.2905 -5.0497,-42.0687 -9.0752,-59.3496 -17.7601,-11.5568 -35.6255,-18.8838 -53.5566,-23.5987 l 36.3489,33.4539 c -11.9996,13.195 -17.4336,27.7535 -21.6819,42.5909 30.8914,11.9582 37.3096,21.4775 44.3123,30.4024 3.0563,3.8948 5.8292,10.3779 9.7727,17.1034 4.4382,10.4173 8.6222,19.8476 11.6502,24.9083 z"
     style="fill:url(#grad8)"
     id="path106" />
  <defs
     id="defs114">
    <linearGradient
       id="grad9">
      <stop
         offset="0%"
         stop-color="#1b1918"
         stop-opacity="1.0000"
         id="stop108" />
      <stop
         offset="100%"
         stop-color="#84756f"
         stop-opacity="1.0000"
         id="stop110" />
    </linearGradient>
    <linearGradient
       xlink:href="#grad9"
       id="grad10"
       x1="0"
       y1="0"
       x2="0"
       y2="1"
       gradientTransform="rotate(129,0.5,0.5)"
       gradientUnits="objectBoundingBox" />
  </defs>
  <path
     d="m 662.5851,748.7181 -11.1889,12.6436 c -3.2766,3.8577 -6.5531,8.4751 -9.8306,14.0086 1.4494,5.9797 3.7364,11.9599 7.8645,17.9407 l -7.1272,9.0933 -0.2457,11.0594 -2.7034,6.144 -4.6695,4.6696 4.8804,-4.8918 12.5688,-0.0235 c 2.5231,-3.0475 5.4504,-6.5568 10.3221,-12.2882 -0.6823,-7.9469 -0.5106,-15.8936 0.2457,-23.8391 -2.6226,-4.0053 -5.4439,-7.0206 -8.3559,-9.5848 l -6.1441,-5.161 -1.0979,-1.2288 4.1839,-5.7844 z"
     style="fill:url(#grad10);stroke:#3c2424;stroke-width:1.1906;stroke-linecap:butt;stroke-linejoin:miter;stroke-dasharray:none"
     id="path116" />
  <path
     d="m 655.3298,756.8147 c 17.678,6.2492 15.0888,21.812 14.5775,40.3889"
     style="fill:none;stroke:#3c2424;stroke-width:1.1339;stroke-linecap:butt;stroke-linejoin:miter;stroke-dasharray:none"
     id="path118" />
  <path
     d="m 373.4473,736.4455 3.0724,29.2977 c 0.1903,1.3255 -0.8614,0.165 -2.4703,-0.519 0.3849,0.08 0.7715,0.1579 1.1596,0.2316 -13.5434,-7.884 -13.9626,-16.6833 -5.4017,-26.1082 1.2025,-1.0191 2.41,-2.0239 3.6213,-3.0186 0.006,0.0399 0.0127,0.0759 0.0187,0.1165 z"
     style="fill:#0e130f;fill-rule:evenodd"
     id="path120" />
  <path
     d="m 401.5485,737.3713 21.3789,-16.3945 19.9888,2.7853 11.9611,13.8819 c -15.1807,-8.894 -34.3188,-13.231 -53.3288,-0.2727 z"
     style="fill:#a16e53;fill-rule:evenodd"
     id="path122" />
  <path
     d="m 480.6893,720.5587 14.7382,-21.2284 33.6679,-10.1409 c -17.6151,10.9267 -30.5819,20.9225 -31.2341,28.1242 2.734,8.9756 9.771,16.7701 18.6593,22.8509 l -20.6875,-12.8452 z"
     style="fill:#a16e53;fill-rule:evenodd"
     id="path124" />
  <defs
     id="defs133">
    <linearGradient
       id="grad11">
      <stop
         offset="0.0000%"
         stop-color="#d9dadb"
         stop-opacity="1.0000"
         id="stop126" />
      <stop
         offset="26.0000%"
         stop-color="#fefefe"
         stop-opacity="1.0000"
         id="stop128" />
      <stop
         offset="100.0000%"
         stop-color="#ffffff"
         stop-opacity="1.0000"
         id="stop130" />
    </linearGradient>
  </defs>
  <path
     d="m 393.8428,756.1891 c 6.5872,-8.782 24.785,-17.4005 38.8352,-21.5742 5.6557,-1.6798 11.9486,1.9987 16.3171,3.1062 -17.5331,13.6207 -28.984,27.8404 -55.1523,18.468 z"
     style="fill:url(#grad11)"
     id="path135" />
  <path
     d="m 394.5725,713.3987 c 15.6773,0.7529 31.4161,2.2918 44.2032,5.455 l 16.7204,19.5488 -12.7902,-14.2387 c -20.5781,-3.359 -40.068,-2.9871 -59.1996,-2.4919 z"
     style="fill:#80614d;fill-rule:evenodd;stroke:#1b1918;stroke-width:1.1906;stroke-linecap:butt;stroke-linejoin:miter;stroke-dasharray:none"
     id="path137" />
  <path
     d="m 521.0821,688.6919 c 16.1683,21.9745 19.499,48.132 19.4568,68.8944 1.8731,0.3877 3.6955,0.7605 5.4691,1.1245 -0.7718,-31.9743 -6.7887,-54.6781 -15.0443,-73.3128 z"
     style="fill:#866f46;fill-rule:evenodd"
     id="path139" />
  <path
     d="m 464.7793,716.277 9.555,0.5408 c 19.6744,-15.023 48.3233,-23.6367 75.1782,-33.5327 l -16.9466,-6.3099 c -25.5839,13.466 -53.7767,26.3194 -67.7866,39.3018 z"
     style="fill:#80614d;fill-rule:evenodd;stroke:#1b1918;stroke-width:1.1906;stroke-linecap:butt;stroke-linejoin:miter;stroke-dasharray:none"
     id="path141" />
  <defs
     id="defs150">
    <linearGradient
       id="grad12">
      <stop
         offset="0.0000%"
         stop-color="#eceded"
         stop-opacity="1.0000"
         id="stop143" />
      <stop
         offset="40.0000%"
         stop-color="#fefefe"
         stop-opacity="1.0000"
         id="stop145" />
      <stop
         offset="100.0000%"
         stop-color="#ffffff"
         stop-opacity="1.0000"
         id="stop147" />
    </linearGradient>
  </defs>
  <path
     d="m 504.2755,720.1786 c 1.7011,-3.8892 4.5539,-5.8751 10.3499,-8.7265 14.9023,-1.7472 32.7484,-2.6603 53.8075,-2.6867 -7.1033,13.7866 -17.4985,16.7871 -29.6688,17.5919 -6.6699,0.441 -14.455,0.9714 -23.6988,-0.506 -4.2279,-0.6755 -7.571,-3.153 -10.7898,-5.6727 z"
     style="fill:url(#grad12)"
     id="path152" />
  <path
     d="m 541.5381,709.3534 c 1.055,-0.048 2.1203,-0.0925 3.1963,-0.1347 -0.0561,0.235 -0.1383,0.4232 -0.2489,0.5664 -0.2157,0.2746 -0.5014,0.4626 -0.8532,0.5643 -0.3515,0.0973 -0.6843,0.1095 -0.9972,0.0324 -0.3169,-0.0726 -0.6268,-0.3249 -0.9337,-0.7521 -0.0644,-0.0881 -0.1191,-0.1797 -0.1633,-0.2763 z m 4.9362,-0.2002 c 0.4249,-0.0153 0.8513,-0.0297 1.2796,-0.0442 0.4323,0.5071 0.6715,0.9635 0.7135,1.3723 0.0626,0.5618 -0.0598,0.6315 -0.3711,0.2041 -0.307,-0.4267 -0.7041,-0.8329 -1.1866,-1.2272 -0.1298,-0.1051 -0.2758,-0.2066 -0.4354,-0.305 z"
     style="fill:#1b1918;fill-rule:evenodd;stroke:#e30016;stroke-width:0.8504;stroke-linecap:butt;stroke-linejoin:miter;stroke-dasharray:none"
     id="path154" />
  <path
     d="m 504.4626,720.4921 c 1.7011,-3.8891 4.5539,-5.8751 10.3499,-8.7265 14.9023,-1.7472 32.7484,-2.6603 53.8075,-2.6866 -0.491,0.9527 -0.9986,1.8527 -1.5202,2.7051 -20.3993,0.0674 -37.745,0.9773 -52.2873,2.6824 -4.7673,2.3454 -7.5442,4.1046 -9.3257,6.8196 -0.3436,-0.2631 -0.6843,-0.5278 -1.0242,-0.794 z"
     style="fill:#d9dadb;fill-rule:evenodd"
     id="path156" />
  <defs
     id="defs167">
    <linearGradient
       id="grad13">
      <stop
         offset="0.0000%"
         stop-color="#79140d"
         stop-opacity="1.0000"
         id="stop158" />
      <stop
         offset="21.0000%"
         stop-color="#7a140e"
         stop-opacity="1.0000"
         id="stop160" />
      <stop
         offset="64.0000%"
         stop-color="#e04732"
         stop-opacity="1.0000"
         id="stop162" />
      <stop
         offset="100.0000%"
         stop-color="#e94e36"
         stop-opacity="1.0000"
         id="stop164" />
    </linearGradient>
  </defs>
  <path
     d="m 524.2405,710.477 c 7.7593,-0.6735 16.213,-1.1517 25.3911,-1.4284 0.0382,0.4006 0.0586,0.8059 0.0586,1.2161 0,7.0092 -5.7166,12.7259 -12.7258,12.7259 -6.9387,0 -12.6099,-5.6016 -12.7239,-12.5136 z"
     style="fill:url(#grad13);stroke:#1b1918;stroke-width:0.3969;stroke-linecap:butt;stroke-linejoin:miter;stroke-dasharray:none"
     id="path169" />
  <path
     d="m 533.5228,709.7856 c 2.3681,-0.1491 4.794,-0.2817 7.2777,-0.3985 0.0303,0.1896 0.0471,0.3835 0.0471,0.5817 0,2.0182 -1.6461,3.6643 -3.6644,3.6643 -2.0185,0 -3.6646,-1.6461 -3.6646,-3.6643 0,-0.0616 0.001,-0.1225 0.004,-0.1832 z"
     style="fill:#1b1918;fill-rule:evenodd"
     id="path171" />
  <path
     d="m 536.9605,718.1378 c -0.6134,-0.1523 -1.0283,-0.3618 -1.2517,-0.6343 -0.2191,-0.2715 -0.3379,-0.5921 -0.3581,-0.9576 -0.016,-0.3642 0.0468,-0.6907 0.1922,-0.9781 0.1417,-0.2926 0.457,-0.5378 0.9417,-0.7409 0.486,-0.2074 1.0157,-0.1636 1.5913,0.1225 0.5802,0.2875 0.9048,0.7286 0.9742,1.3231 0.0697,0.5949 -0.1392,1.2869 -0.6242,2.0676 -0.4806,0.7817 -1.1801,1.4766 -2.0871,2.0781 -0.9082,0.6061 -1.6408,0.877 -2.2011,0.8072 -0.5613,-0.0654 -0.6018,-0.2002 -0.1158,-0.4076 0.4846,-0.2031 0.9692,-0.4986 1.4614,-0.8799 0.493,-0.3857 0.988,-0.9838 1.4772,-1.8001 z"
     style="fill:#1b1918;fill-rule:evenodd"
     id="path173" />
  <path
     d="m 544.3588,711.5423 a 2.9492,2.9492 0 0 1 2.9492,2.9491 2.9492,2.9492 0 1 1 -2.9492,-2.9491 z"
     style="fill:#ffffff;fill-rule:evenodd"
     id="path175" />
  <path
     d="m 393.9024,756.4504 c 6.5871,-8.782 24.785,-17.4004 38.8352,-21.5742 5.6557,-1.6798 11.9486,1.9987 16.317,3.1062 -0.4226,0.3283 -0.8416,0.6574 -1.2574,0.9862 -3.9317,-1.4383 -8.6437,-3.3029 -12.9818,-2.0146 -13.4629,3.9991 -30.7327,12.0787 -37.9483,20.4735 -0.968,-0.2931 -1.9539,-0.6151 -2.9647,-0.9771 z"
     style="fill:#d9dadb;fill-rule:evenodd"
     id="path177" />
  <defs
     id="defs187">
    <linearGradient
       id="grad14">
      <stop
         offset="0.0000%"
         stop-color="#93a7b0"
         stop-opacity="1.0000"
         id="stop179" />
      <stop
         offset="50.0000%"
         stop-color="#4c638b"
         stop-opacity="1.0000"
         id="stop181" />
      <stop
         offset="100.0000%"
         stop-color="#1b1918"
         stop-opacity="1.0000"
         id="stop183" />
    </linearGradient>
    <linearGradient
       xlink:href="#grad14"
       id="grad15"
       x1="0"
       y1="0"
       x2="0"
       y2="1"
       gradientTransform="rotate(171,0.5,0.5)"
       gradientUnits="objectBoundingBox" />
  </defs>
  <path
     d="m 408.4435,744.7728 c 7.2941,-4.0813 15.8293,-7.5818 23.3116,-9.8782 0.3705,1.1906 0.5706,2.4548 0.5706,3.7647 0,7.0093 -5.7166,12.7259 -12.7259,12.7259 -4.7965,0 -8.9881,-2.6765 -11.1563,-6.6124 z"
     style="fill:url(#grad15);stroke:#1b1918;stroke-width:0.3969;stroke-linecap:butt;stroke-linejoin:miter;stroke-dasharray:none"
     id="path189" />
  <path
     d="m 415.3598,741.2366 c 2.9781,-1.3955 6.0352,-2.6802 9.0451,-3.8191 0.1031,0.3971 0.1584,0.813 0.1584,1.2418 0,2.7338 -2.2297,4.9635 -4.9635,4.9635 -1.7915,0 -3.3669,-0.957 -4.24,-2.3862 z"
     style="fill:#1b1918;fill-rule:evenodd"
     id="path191" />
  <path
     d="m 428.2427,737.4407 a 2.9492,2.9492 0 0 1 2.9491,2.9492 2.9492,2.9492 0 1 1 -2.9491,-2.9492 z"
     style="fill:#ffffff;fill-rule:evenodd"
     id="path193" />
  <path
     d="m 399.7607,758.2005 c -2.0443,-0.4719 -4.1848,-1.1035 -6.4335,-1.9088 6.5872,-8.782 24.785,-17.4008 38.8352,-21.5742 5.6554,-1.6798 12.3285,2.3026 16.6969,3.4101"
     style="fill:none;stroke:#1b1918;stroke-width:1.1339;stroke-linecap:butt;stroke-linejoin:miter;stroke-dasharray:none"
     id="path195" />
  <path
     d="m 436.8889,747.2965 c -8.2324,6.5313 -16.2567,11.6487 -26.7914,11.9951"
     style="fill:none;stroke:#1b1918;stroke-width:1.1339;stroke-linecap:butt;stroke-linejoin:miter;stroke-dasharray:none"
     id="path197" />
  <path
     d="m 399.4713,758.1237 c -2.0443,-0.472 -5.5417,-0.5519 -7.7904,-1.3572 1.2815,-1.6892 5.2718,-5.5108 8.5373,-7.7525 6.5019,-4.4631 15.5563,-8.4781 18.5072,-9.3739"
     style="fill:none;stroke:#1b1918;stroke-width:1.1339;stroke-linecap:butt;stroke-linejoin:miter;stroke-dasharray:none"
     id="path199" />
  <path
     d="m 436.1678,747.879 c -9.8824,7.5283 -18.4898,12.5739 -25.5711,11.4503"
     style="fill:none;stroke:#1b1918;stroke-width:1.1339;stroke-linecap:butt;stroke-linejoin:miter;stroke-dasharray:none"
     id="path201" />
  <path
     d="m 351.8016,675.4275 c -0.3274,6.7427 1.2374,13.248 4.9198,13.85 0.9686,14.6472 2.1181,29.4753 4.5332,45.5687 -2.5143,5.106 -4.24,10.7756 -3.151,18.4558 3.4435,8.5657 9.0037,10.6285 16.0606,11.9713 -12.0841,-8.2491 -12.3018,-16.655 -4.3569,-25.9257 43.3633,-36.7526 92.5787,-57.7783 150.3473,-55.8176 41.0074,3.9935 81.8286,15.4103 121.9885,53.3418 l 4.138,1.7051 c 7.4032,-2.3032 11.9752,-0.3309 16.8154,3.9177 3.7649,3.3044 7.63,8.1547 10.4306,12.3557 14.3824,-4.7316 11.3803,-13.5355 10.2254,-25.3752 C 661.449,637.2839 591.114,584.3081 497.8026,588.7471 444.7253,593.1 370.4182,620.7273 351.8016,675.4275 Z"
     style="fill:#373537;fill-rule:evenodd;stroke:#1b1918;stroke-width:0.9638;stroke-linecap:butt;stroke-linejoin:miter;stroke-dasharray:none"
     id="path203" />
  <path
     d="m 364.8521,671.4162 -0.137,34.5217 c 1.4795,17.5445 11.8378,14.8683 26.5536,3.0019 42.014,-31.57 102.1025,-47.0265 174.7709,-33.7635 9.9213,1.8817 16.801,-0.8935 16.2,-15.12 l -2.16,-29.16 c -5.1176,-25.6498 -31.1621,-30.1586 -58.5947,-31.1697 -22.877,-0.8431 -48.7683,0.8963 -72.966,8.327 -33.1594,10.1829 -61.9075,29.1793 -74.7193,42.6427 -4.8844,5.2172 -7.9897,12.0147 -8.9475,20.7199 z"
     style="fill:#baa89c;fill-rule:evenodd;stroke:#1b1918;stroke-width:1.2472;stroke-linecap:butt;stroke-linejoin:miter;stroke-dasharray:none"
     id="path205" />
  <path
     d="m 540.3214,601.1249 c 0.3297,0.0862 0.6585,0.1766 0.9879,0.2645 -0.2639,-0.0394 -0.5284,-0.0783 -0.7937,-0.1163 z m 26.6463,9.2143 c 40.3271,17.8288 77.6268,54.3005 110.4641,133.1816 0.5208,5.8294 -1.6843,8.5855 -4.5464,8.4293 -20.9257,-63.0311 -36.8725,-96.7121 -84.1612,-121.0864 -2.755,14.5264 -3.0827,29.0529 -0.9842,43.5784 10.671,6.1835 19.3031,12.3682 26.5399,18.5522 -11.795,-7.0466 -24.8253,-13.2114 -40.4337,-17.5325 5.4953,-1.0052 8.8186,-5.3365 8.3934,-15.4055 l -2.16,-29.16 c -1.8765,-9.4059 -6.5704,-15.967 -13.1119,-20.5571 z"
     style="fill:#0e130f;fill-rule:evenodd"
     id="path207" />
  <path
     d="m 424.6206,653.5125 c 0.1454,5.2186 3.3083,9.671 11.2408,13.7226 -5.7912,0.2426 -10.7195,1.5814 -15.7312,3.3825 0.779,-5.5961 2.1552,-11.12 4.4904,-17.1051 z m 51.9834,-40.9493 c 3.5065,-0.727 5.4867,-0.008 4.1094,3.8931 l -13.8422,10.1654 c -0.1539,-0.036 -0.3081,-0.0715 -0.4612,-0.106 -32.849,-7.4535 -48.9424,28.1287 -26.3579,35.3602 6.0134,1.7206 11.668,0.8821 20.1144,-8.2188 11.6665,-22.1726 -24.1121,-22.0351 -18.8167,-4.1094 2.9531,3.5535 6.7377,4.9465 13.4892,-1.3773 8.0558,-0.8408 -4.0694,15.8201 -15.7943,6.7787 -4.6951,-4.6145 -4.0941,-9.5351 -3.0223,-14.269 2.4735,-6.1132 11.6356,-11.3258 23.0626,-8.4351 5.5883,2.1257 9.2447,6.6983 8.6514,16.6539 -2.5382,9.1145 -10.4584,15.2937 -22.0609,19.4655 -10.639,4.6389 -20.5906,6.7649 -31.2302,8.5172 0.9425,-11.9676 3.4841,-23.8685 9.7832,-35.8358 3.761,-7.3764 10.8587,-15.0832 20.7981,-18.7498 6.6325,-1.0641 13.2659,-1.8694 19.8981,-0.8651 z"
     style="fill:#675c46;fill-rule:evenodd;stroke:#1b1918;stroke-width:1.0205;stroke-linecap:butt;stroke-linejoin:miter;stroke-dasharray:none"
     id="path209" />
  <path
     d="m 371.0319,681.8613 a 3.155,3.155 0 0 1 3.1549,3.1549 3.155,3.155 0 1 1 -3.1549,-3.1549 z"
     style="fill:#575244;fill-rule:evenodd;stroke:#1b1918;stroke-width:0.8504;stroke-linecap:butt;stroke-linejoin:miter;stroke-dasharray:none"
     id="path211" />
  <path
     d="m 372.4971,701.7327 a 3.155,3.9061 0 0 1 3.155,3.9061 3.155,3.9061 0 1 1 -3.155,-3.9061 z"
     style="fill:#575244;fill-rule:evenodd;stroke:#1b1918;stroke-width:0.8504;stroke-linecap:butt;stroke-linejoin:miter;stroke-dasharray:none"
     id="path213" />
  <path
     d="m 374.2722,718.3933 c 4.471,-0.5383 10.2798,-4.0374 16.9965,-9.4535 42.014,-31.57 102.1025,-47.0265 174.7709,-33.7635 2.268,0.43 4.3756,0.6151 6.2725,0.4777 -11.2603,-9.082 -28.9825,-11.3239 -47.3286,-12 -7.9127,-0.2916 -16.187,-0.2726 -24.6257,0.182 -0.548,-1.4887 -1.9724,-2.5548 -3.6363,-2.5548 -1.8496,0 -3.4047,1.3175 -3.7874,3.0682 -13.6258,1.1531 -27.5301,3.5209 -40.9167,7.6317 -33.1594,10.1829 -61.9075,29.1793 -74.7193,42.6427 -1.1001,1.1753 -2.1104,2.4304 -3.0259,3.7695 z"
     style="fill:#575244;fill-rule:evenodd;stroke:#1b1918;stroke-width:0.8504;stroke-linecap:butt;stroke-linejoin:miter;stroke-dasharray:none"
     id="path215" />
  <path
     d="m 558.4337,720.7719 c -5.6568,3.8242 -12.2576,5.0763 -19.4834,5.5539 -6.6699,0.4408 -14.455,0.9714 -23.6987,-0.506"
     style="fill:none;stroke:#1b1918;stroke-width:1.1339;stroke-linecap:butt;stroke-linejoin:miter;stroke-dasharray:none"
     id="path217" />
  <path
     d="m 504.4618,720.1471 c 1.701,-3.8891 4.5538,-5.8751 10.3498,-8.7264 14.9023,-1.7473 32.7484,-2.6604 53.8075,-2.6867 -0.9467,1.8377 -1.9525,3.4838 -3.0126,4.9586"
     style="fill:none;stroke:#1b1918;stroke-width:1.1339;stroke-linecap:butt;stroke-linejoin:miter;stroke-dasharray:none"
     id="path219" />
  <path
     d="m 559.2404,720.1372 c -5.2358,3.8259 -8.0864,6.1078 -15.5024,6.5826 -6.6682,0.4272 -16.1214,0.976 -25.3652,-0.5014"
     style="fill:none;stroke:#1b1918;stroke-width:1.1339;stroke-linecap:butt;stroke-linejoin:miter;stroke-dasharray:none"
     id="path221" />
  <path
     d="m 516.0586,711.2693 c 9.7795,-1.1466 20.3839,-2.1855 33.0262,-2.7233 6.6208,-0.2817 13.8313,-0.6959 21.0702,-0.7046 -0.9468,1.8377 -3.051,4.1575 -4.1111,5.6324"
     style="fill:#d9dadb;fill-rule:evenodd;stroke:#1b1918;stroke-width:1.1339;stroke-linecap:butt;stroke-linejoin:miter;stroke-dasharray:none"
     id="path223" />
  <path
     d="m 495.4136,1000.1211 c 3.939,2.3017 8.2389,2.4403 12.8999,0.4161 24.0023,-19.0017 44.8259,-38.5336 64.4995,-58.2576 l 27.0482,-35.3707 -0.8649,0.3844 c -18.7395,22.6947 -39.9353,41.1003 -61.5265,58.1062 -20.3145,9.2815 -38.4299,10.6949 -57.3934,4.2418 l -0.0595,0.1026 c 3.7749,10.1259 8.0025,20.2518 15.3967,30.3772 z"
     style="fill:#1b1918;fill-rule:evenodd"
     id="path225" />
  <path
     d="m 632.8882,750.7261 c -2.8394,7.0643 -1.9392,14.1288 -2.9089,21.1936 10.8332,-19.232 22.8115,-32.9267 40.3092,-19.9469 l 0.5035,-0.7183 c -13.106,-19.1769 -25.7828,-17.0918 -37.7365,-0.7605 z"
     style="fill:#fefde2;fill-rule:evenodd"
     id="path227" />
  <path
     d="m 379.0349,648.023 17.1593,-12.3928 4.1309,60.027 c -6.3975,3.6867 -12.4977,8.6139 -18.4303,13.6942 z"
     style="fill:#f5ecc5;fill-rule:evenodd"
     id="path229" />
  <path
     d="m 402.4466,631.2509 2.5934,-2.4712 4.604,61.2249 -2.6904,1.6064 z"
     style="fill:#f5ecc5;fill-rule:evenodd"
     id="path231" />
  <path
     d="m 531.2242,610.742 4.4652,26.0705 2.1911,27.1517 -3.5909,-0.4822 z"
     style="fill:#575244;fill-rule:evenodd"
     id="path233" />
  <path
     d="m 543.0688,671.4607 c 7.2377,0.7704 14.6157,1.8326 22.1289,3.2037 9.9213,1.8816 16.9552,-0.0658 16.3542,-14.2923 l -2.16,-29.16 C 577.4448,610.2 556.5566,604.9026 538.5328,601.7542 Z"
     style="fill:#575244;fill-rule:evenodd"
     id="path235" />
  <path
     d="m 364.9493,672.4287 0.2951,33.0097 c 0.2253,2.6725 0.6573,4.8728 1.2787,6.6459 -0.1599,-0.9383 -0.286,-1.9514 -0.3782,-3.0436 l -0.295,-33.0097 c 0.9578,-8.7052 4.0631,-15.5027 8.9475,-20.7199 12.8118,-13.4634 41.5599,-32.4598 74.7193,-42.6427 24.1977,-7.4307 50.089,-9.1701 72.966,-8.327 26.0856,0.9615 50.256,4.6938 57.0317,27.1502 -5.1287,-25.6297 -30.5079,-29.7417 -57.9322,-30.7525 -22.877,-0.843 -48.7684,0.8963 -72.9661,8.327 -33.1594,10.1829 -61.9075,29.1793 -74.7192,42.6428 -4.8844,5.2171 -7.9898,12.0146 -8.9476,20.7198 z"
     style="fill:#f5ecc5;fill-rule:evenodd"
     id="path237" />
  <path
     d="m 571.4189,639.1052 a 3.155,3.9061 0 0 1 3.155,3.9061 3.155,3.9061 0 1 1 -3.155,-3.9061 z"
     style="fill:#575244;fill-rule:evenodd;stroke:#1b1918;stroke-width:0.8504;stroke-linecap:butt;stroke-linejoin:miter;stroke-dasharray:none"
     id="path239" />
  <path
     d="m 571.773,659.6989 a 3.155,3.9061 0 0 1 3.1549,3.9061 3.155,3.9061 0 1 1 -3.1549,-3.9061 z"
     style="fill:#575244;fill-rule:evenodd;stroke:#1b1918;stroke-width:0.8504;stroke-linecap:butt;stroke-linejoin:miter;stroke-dasharray:none"
     id="path241" />
  <path
     d="m 569.238,618.7958 a 3.155,3.9061 0 0 1 3.1549,3.9061 3.155,3.9061 0 1 1 -3.1549,-3.9061 z"
     style="fill:#575244;fill-rule:evenodd;stroke:#1b1918;stroke-width:0.8504;stroke-linecap:butt;stroke-linejoin:miter;stroke-dasharray:none"
     id="path243" />
  <path
     d="m 372.7976,658.7651 a 3.155,3.155 0 0 1 3.1549,3.155 3.155,3.155 0 1 1 -3.1549,-3.155 z"
     style="fill:#575244;fill-rule:evenodd;stroke:#1b1918;stroke-width:0.8504;stroke-linecap:butt;stroke-linejoin:miter;stroke-dasharray:none"
     id="path245" />
  <path
     d="m 613.0276,713.8264 c 4.0254,17.2809 6.6523,38.0591 9.0751,59.3496 4.2023,-14.9293 11.6147,-27.6356 25.9509,-35.549 l 4.8719,-0.4298 c 1.4329,0.241 2.8389,0.5661 4.2111,0.9995 l 11.7335,8.9396 3.4877,5.2317 c 3.7358,13.9855 4.9139,28.3368 4.3359,42.9395 -2.7703,13.5717 -10.5608,21.2074 -17.1709,30.2995 -2.5511,10.5154 -8.3165,15.7379 -19.6497,13.0796"
     style="fill:none;stroke:#3c2424;stroke-width:1.2756;stroke-linecap:butt;stroke-linejoin:miter;stroke-dasharray:none"
     id="path247" />
  <path
     d="m 437.1613,730.1245 c -18.2766,-2.2252 -19.4196,-1.0684 -36.0215,6.7028"
     style="fill:#a16e53;fill-rule:evenodd;stroke:#1b1918;stroke-width:0.8504;stroke-linecap:butt;stroke-linejoin:miter;stroke-dasharray:none"
     id="path249" />
  <path
     d="m 524.9044,692.2089 c -11.9254,7.5466 -21.3948,14.5936 -25.8089,20.5078"
     style="fill:#a16e53;fill-rule:evenodd;stroke:#1b1918;stroke-width:0.8504;stroke-linecap:butt;stroke-linejoin:miter;stroke-dasharray:none"
     id="path251" />
  <path
     d="m 502.2595,731.0599 4.7169,3.4081 9.0978,5.1934"
     style="fill:#a16e53;fill-rule:evenodd;stroke:#1b1918;stroke-width:0.8504;stroke-linecap:butt;stroke-linejoin:miter;stroke-dasharray:none"
     id="path253" />
  <path
     d="m 639.1253,838.7668 8e-4,0.0363 c -0.004,-0.008 -0.008,-0.0156 -0.013,-0.0235 z m 0.0714,3.5496 c 0.5644,28.1044 1.8649,54.5428 2.8854,81.6647 -6.0636,1.1755 -12.8392,3.3063 -18.8566,4.9399 -9.1607,3.7846 -16.4061,9.027 -22.3376,15.5353 l -9.7928,-3.3996 2.4913,-25.8287 c 17.6539,-20.1546 33.3933,-43.7074 45.6103,-72.9116 z"
     style="fill:#252934;fill-rule:evenodd"
     id="path255" />
  <path
     d="m 588.7831,920.1711 c 18.2033,-20.1547 41.4374,-51.9441 51.1246,-81.1486 0.5643,28.1044 1.1687,58.4357 2.1892,85.5576"
     style="fill:none;stroke:#1b1918;stroke-width:1.1906;stroke-linecap:butt;stroke-linejoin:miter;stroke-dasharray:none"
     id="path257" />
  <path
     d="m 511.3687,750.5643 c 26.0566,7.4849 44.9027,9.0966 59.2356,14.4034 34.0766,12.6167 40.7145,22.5263 47.9868,31.7948 3.0563,3.8948 5.8292,10.3779 9.7727,17.1034 4.4382,10.4173 8.6222,19.8476 11.6502,24.9083 -24.1884,59.0916 -62.6965,95.2398 -102.5442,126.6253 -23.1486,10.5764 -43.4421,10.9372 -65.3882,1.0823 -5.9757,-9.1616 -53.3673,-63.375 -79.5566,-110.3998 -10.804,-19.3995 -11.0234,-29.5515 -12.7964,-48.1524 -0.0369,-0.4584 -0.2532,-1.0145 0.0348,-1.3765 9.7917,-12.2979 26.6443,-22.3387 44.4926,-35.7509 10.7226,-8.0572 19.2583,-21.3006 29.96,-28.7316 17.8957,-12.4263 39.5404,3.4344 57.1527,8.4937 z"
     style="fill:#4e5364;fill-rule:evenodd;stroke:#1b1918;stroke-width:1.2756;stroke-linecap:butt;stroke-linejoin:miter;stroke-dasharray:none"
     id="path259" />
  <path
     d="m 510.8465,751.0864 c 26.0566,7.4849 44.9028,9.0967 59.2356,14.4034 34.0767,12.6168 40.7146,22.5264 47.9869,31.7948 3.0563,3.8948 5.8291,10.378 9.7727,17.1034 4.4382,10.4174 8.6221,19.8477 11.6501,24.9083 -13.0498,31.8807 -29.7476,56.5577 -49.0955,77.9372 -25.3372,22.1565 -50.2835,38.844 -74.5996,46.7141 -16.1538,1.694 -27.2053,-2.7346 -33.1549,-13.2854 2.7564,-30.3568 3.8483,-59.9454 -6.7141,-84.1544 0.2777,-27.4028 -2.7562,-22.9822 -29.4016,-50.4159 -4.7262,-7.7709 -5.2078,-14.339 -0.0932,-25.2725 6.4967,-15.8653 2.7683,-39.5569 17.1462,-52.8117 15.7385,-3.305 32.6333,8.8749 47.2674,13.0787 z"
     style="fill:#252934;fill-rule:evenodd"
     id="path261" />
  <path
     d="m 511.3687,750.5643 c 14.4688,4.1561 26.7128,6.5007 37.197,8.6734 -25.7023,31.6112 -51.7195,60.802 -79.0764,79.7242 -4.333,-5.0996 -11.4389,-11.0047 -22.9632,-22.87 -0.4563,-0.7503 -0.8722,-1.4899 -1.2481,-2.2226 22.8425,8.2823 33.1498,-56.1141 35.682,-74.6753 10.4967,2.9148 21.0243,8.6745 30.4087,11.3703 z"
     style="fill:#121923;fill-rule:evenodd"
     id="path263" />
  <path
     d="m 386.7914,800.1612 c 4.5246,30.0909 10.387,57.2633 30.2544,81.6168 23.9151,29.3148 44.4305,54.7518 60.0582,86.3014 l -0.2962,0.3739 c -1.5681,-0.6049 -3.1425,-1.2603 -4.7262,-1.9715 -5.9757,-9.1616 -53.3673,-63.375 -79.5566,-110.3998 -10.804,-19.3995 -10.9638,-28.5877 -12.7369,-47.1886 -0.0369,-0.4584 -0.2531,-1.0146 0.0349,-1.3765 1.8989,-2.3851 4.5827,-5.0996 6.9684,-7.3557 z"
     style="fill:#d5dcec;fill-rule:evenodd"
     id="path265" />
  <path
     d="m 699.6487,914.1644 c -0.2452,0.3504 -0.4805,0.6767 -0.7166,0.982 -0.851,0.9467 -2.2306,1.9621 -4.214,3.0515 -1.2359,0.4348 -2.823,0.7922 -4.9728,1.1182 -1.0956,0.1661 -2.2493,0.3135 -3.4484,0.4465 -6.0565,0.2367 -12.0968,0.6372 -18.1182,1.222 -2.7385,0.1389 -5.468,0.2818 -8.1091,0.4544 l 1.0579,-20.0013 1.3059,-0.0453 c 8.2457,2.0602 41.5681,4.8685 37.2153,12.772 z"
     style="fill:#212320;fill-rule:evenodd"
     id="path267" />
  <path
     d="m 642.0223,911.0256 5.5157,-70.9917 -6.9265,-0.352 z"
     style="fill:#78654e;fill-rule:evenodd"
     id="path269" />
  <g
     id="Layer1000">
    <path
       d="m 192.7831,195.7931 c -23.0822,13.8692 -46.8733,27.1971 -61.7064,47.3624 -0.4369,-7.9377 0.2536,-15.7624 4.0597,-23.2752 -5.7057,2.2555 -12.0808,7.4004 -17.575,10.5047 3.6015,-6.6881 8.5831,-14.5255 13.2447,-20.7891 -16.9975,-2.6965 -34.9851,-11.0851 -53.5871,-23.0046 10.2499,0.965 20.3242,0.8761 29.7706,-2.9771 -24.8491,-10.533 -42.4944,-23.2079 -55.211,-37.3486 11.4103,3.255 27.739,3.8866 48.9862,1.8945 C 75.1145,130.6895 54.9654,109.0268 38.2286,84.764 54.6283,96.8335 86.53,97.6287 121.6487,96.0835 l -7.3109,0.3755 C 95.3023,85.3741 87.4547,83.627 64.8049,77.6277 c 31.1835,-1.1917 61.7098,-1.6161 85.6348,5.6598 l 24.3616,10.0892 -24.3444,-10.1741 c -15.474,-11.7623 -25.4577,-25.4858 -35.5386,-39.1749 13.1405,15.0545 39.1674,18.1844 62.4158,25.5856 13.0984,4.1698 24.4147,8.0267 37.371,15.2166 L 243.3932,109.0523 215.01,84.8531 C 207.0045,70.4997 197.3642,57.781 185.7513,47.035 c 26.739,10.6189 52.4709,25.5349 72.4251,65.103 -6.3902,-16.4907 -14.0166,-31.9514 -21.8071,-47.2753 19.5227,19.8534 35.7653,42.7018 45.5244,71.4701 l -5.6402,-14.4142 c 2.4289,-13.2658 1.9506,-26.8955 1.6608,-40.5016 8.7545,18.9952 11.9911,43.9329 9.7097,74.8128 2.3063,-9.2319 11.9102,-18.4641 24.8315,-27.6966 -10.665,12.3096 -12.4159,29.3946 -18.6236,44.0918 5.2823,-4.785 11.4212,-9.2033 18.1461,-13.3708 -8.9216,9.7108 -15.2829,26.8527 -19.4224,36.2021 z"
       style="fill:none;stroke:#e30016;stroke-width:0.8504;stroke-linecap:butt;stroke-linejoin:miter;stroke-dasharray:none"
       id="path271" />
    <path
       d="m 337.9504,135.4558 -12.3039,18.7019 -9.8431,31.7439 -18.4557,15.7489 0.4445,7.4041 14.0734,10.8257 8.3899,21.3807 0.812,8.9312 6.4954,7.8486 9.7431,1.0826 -12.4495,5.1422 -8.39,-1.8945 -7.0366,-2.1652 -26.2523,-2.1651 -15.9679,-56.0229 5.6835,-30.3119 22.7339,-19.4863 9.7431,-2.977 27.8762,-11.6376 z"
       style="fill:none;stroke:#e30016;stroke-width:0.8504;stroke-linecap:butt;stroke-linejoin:miter;stroke-dasharray:none"
       id="path273" />
    <path
       d="m 297.5895,263.8771 -7.6666,-42.1662 -19.6174,21.6468 5.1862,52.0876 5.1862,-19.8429 4.7352,20.2939 1.5785,-30.4408 6.7646,14.4312 0.2255,-25.2546 z"
       style="fill:none;stroke:#e30016;stroke-width:0.8504;stroke-linecap:butt;stroke-linejoin:miter;stroke-dasharray:none"
       id="path275" />
    <path
       d="m 130.954,173.9075 c -0.164,3.3776 0.6199,6.6362 2.4645,6.9378 0.4852,7.3372 1.061,14.7649 2.2708,22.8265 -1.2595,2.5578 -2.124,5.3978 -1.5784,9.245 1.7249,4.2908 5.0335,5.4156 8.5685,6.0882 -6.7842,-3.9493 -6.9942,-8.3571 -2.7058,-13.0783 21.7218,-18.4103 46.375,-28.9426 75.3129,-27.9605 20.5416,2.0005 40.99,7.7194 61.1071,26.7203 l 1.3615,0.5696 5.412,-0.4776 6.6854,5.0937 2.5468,3.8202 c 7.2045,-2.3702 5.4161,-6.7802 4.8376,-12.7111 -11.1724,-46.1809 -46.405,-72.7179 -93.1472,-70.4943 -26.5878,2.1805 -63.8101,16.0197 -73.1357,43.4205 z"
       style="fill:none;stroke:#e30016;stroke-width:0.8504;stroke-linecap:butt;stroke-linejoin:miter;stroke-dasharray:none"
       id="path277" />
    <path
       d="m 137.4913,171.8981 -0.0685,17.2928 c 0.741,8.7885 5.9298,7.4479 13.3013,1.5037 21.0459,-15.8142 51.1458,-23.5567 87.5473,-16.913 4.9699,0.9426 8.4161,-0.4475 8.115,-7.574 l -1.082,-14.607 c -2.5635,-12.8486 -15.6099,-15.1072 -29.3516,-15.6137 -11.4597,-0.4223 -24.4293,0.449 -36.5506,4.1712 -16.6104,5.1009 -31.0111,14.6167 -37.4288,21.3609 -2.4467,2.6134 -4.0023,6.0184 -4.4821,10.3791 z"
       style="fill:none;stroke:#e30016;stroke-width:0.8504;stroke-linecap:butt;stroke-linejoin:miter;stroke-dasharray:none"
       id="path279" />
    <path
       d="m 141.5314,201.8738 c 1.6038,12.5976 2.3757,25.5594 3.412,38.4074 0.8881,9.3177 0.9981,14.4031 6.41,24.1208 13.1189,23.556 36.8586,50.7129 39.852,55.3022 10.9934,4.9365 21.1589,4.7558 32.7547,-0.5422 19.9607,-15.7218 39.2505,-33.8294 51.367,-63.4299 5.6771,1.3316 8.5651,-1.2845 9.8431,-6.5519 3.3112,-4.5545 7.2136,-8.3794 8.6013,-15.1779 0.292,-7.374 -0.3098,-14.6203 -2.2172,-21.6797 -2.7865,-5.6852 -6.877,-7.2396 -11.3326,-7.6372 -7.7064,3.9254 -11.6146,10.4803 -13.7962,18.2307 -1.2405,-10.9009 -2.5878,-21.5345 -4.6809,-30.3024 -25.6088,-40.51 -120.6841,-7.6622 -120.2132,9.2601 z"
       style="fill:none;stroke:#e30016;stroke-width:0.8504;stroke-linecap:butt;stroke-linejoin:miter;stroke-dasharray:none"
       id="path281" />
    <path
       d="m 141.7969,204.473 2.0801,14.4957 c 0.0953,0.6639 -0.9725,0.2629 -1.7785,-0.0797 0.1928,0.04 0.3865,0.0791 0.5809,0.116 -6.7842,-3.9493 -6.9942,-8.3571 -2.7058,-13.0783 0.6023,-0.5105 1.2072,-1.0138 1.8139,-1.5121 0.003,0.02 0.006,0.0381 0.009,0.0584 z"
       style="fill:none;stroke:#e30016;stroke-width:0.8504;stroke-linecap:butt;stroke-linejoin:miter;stroke-dasharray:none"
       id="path283" />
    <path
       d="m 210.8853,211.5454 c 13.0525,3.7494 22.493,4.5568 29.6727,7.2151 17.0699,6.32 20.395,11.284 24.0379,15.9268 1.5309,1.951 2.9199,5.1986 4.8954,8.5676 2.2232,5.2183 4.319,9.9422 5.8358,12.4772 -12.1165,29.6005 -31.4063,47.7081 -51.367,63.4299 -11.5958,5.298 -21.7613,5.4787 -32.7547,0.5422 -2.9934,-4.5893 -26.7331,-31.7462 -39.852,-55.3022 -5.4119,-9.7177 -5.5219,-14.8031 -6.41,-24.1208 -0.0185,-0.2296 -0.1268,-0.5082 0.0174,-0.6895 4.905,-6.1603 13.3468,-11.1901 22.2875,-17.9085 5.3713,-4.0361 9.647,-10.6701 15.0078,-14.3925 8.9644,-6.2246 19.8068,1.7204 28.6292,4.2547 z"
       style="fill:none;stroke:#e30016;stroke-width:0.8504;stroke-linecap:butt;stroke-linejoin:miter;stroke-dasharray:none"
       id="path285" />
    <path
       d="m 155.8736,204.9367 10.7092,-8.2124 10.0129,1.3953 5.9916,6.9537 c -7.6044,-4.4552 -17.1911,-6.6277 -26.7137,-0.1366 z"
       style="fill:none;stroke:#e30016;stroke-width:0.8504;stroke-linecap:butt;stroke-linejoin:miter;stroke-dasharray:none"
       id="path287" />
    <path
       d="m 195.5172,196.5149 7.3828,-10.6339 16.8651,-5.0798 c -8.8238,5.4734 -15.3192,10.4806 -15.646,14.0881 1.3696,4.4961 4.8946,8.4006 9.347,11.4466 l -10.3629,-6.4345 z"
       style="fill:none;stroke:#e30016;stroke-width:0.8504;stroke-linecap:butt;stroke-linejoin:miter;stroke-dasharray:none"
       id="path289" />
    <path
       d="m 215.7511,180.552 c 9.3145,12.6595 10.1242,28.0914 9.6393,38.9953 l 2.8633,2.4849 c 0.3534,-19.4685 -2.886,-32.5968 -7.5527,-43.1302 z"
       style="fill:none;stroke:#e30016;stroke-width:0.8504;stroke-linecap:butt;stroke-linejoin:miter;stroke-dasharray:none"
       id="path291" />
    <path
       d="m 217.3332,191.4647 c 3.8868,-0.3374 8.1215,-0.5769 12.719,-0.7155 0.0192,0.2006 0.0294,0.4037 0.0294,0.6091 0,3.5111 -2.8636,6.3747 -6.3747,6.3747 -3.4758,0 -6.3166,-2.8059 -6.3737,-6.2683 z"
       style="fill:none;stroke:#e30016;stroke-width:0.8504;stroke-linecap:butt;stroke-linejoin:miter;stroke-dasharray:none"
       id="path293" />
    <path
       d="m 159.3274,208.6444 c 3.6539,-2.0445 7.9293,-3.798 11.6774,-4.9483 0.1856,0.5964 0.2858,1.2297 0.2858,1.8858 0,3.5112 -2.8636,6.3748 -6.3747,6.3748 -2.4027,0 -4.5023,-1.3408 -5.5885,-3.3123 z"
       style="fill:none;stroke:#e30016;stroke-width:0.8504;stroke-linecap:butt;stroke-linejoin:miter;stroke-dasharray:none"
       id="path295" />
    <path
       d="m 162.792,206.873 c 1.4918,-0.6991 3.0232,-1.3426 4.5309,-1.9131 0.0517,0.1989 0.0794,0.4072 0.0794,0.622 0,1.3694 -1.117,2.4864 -2.4864,2.4864 -0.8974,0 -1.6866,-0.4794 -2.1239,-1.1953 z"
       style="fill:none;stroke:#e30016;stroke-width:0.8504;stroke-linecap:butt;stroke-linejoin:miter;stroke-dasharray:none"
       id="path297" />
    <path
       d="m 221.9829,191.1184 c 1.1863,-0.0747 2.4014,-0.1412 3.6456,-0.1997 0.0152,0.095 0.0236,0.1921 0.0236,0.2914 0,1.011 -0.8246,1.8356 -1.8356,1.8356 -1.0111,0 -1.8357,-0.8246 -1.8357,-1.8356 0,-0.0308 6e-4,-0.0614 0.002,-0.0917 z"
       style="fill:none;stroke:#e30016;stroke-width:0.8504;stroke-linecap:butt;stroke-linejoin:miter;stroke-dasharray:none"
       id="path299" />
    <path
       d="m 223.7049,195.3022 c -0.3072,-0.0763 -0.5151,-0.1812 -0.627,-0.3178 -0.1097,-0.136 -0.1692,-0.2966 -0.1793,-0.4797 -0.008,-0.1824 0.0234,-0.346 0.0962,-0.4899 0.071,-0.1466 0.229,-0.2694 0.4717,-0.3711 0.2435,-0.1039 0.5088,-0.082 0.7972,0.0613 0.2906,0.144 0.4532,0.365 0.488,0.6628 0.0349,0.298 -0.0698,0.6447 -0.3127,1.0357 -0.2408,0.3916 -0.5911,0.7397 -1.0455,1.041 -0.4549,0.3036 -0.8219,0.4393 -1.1026,0.4044 -0.2812,-0.0328 -0.3014,-0.1003 -0.058,-0.2042 0.2428,-0.1018 0.4855,-0.2498 0.7321,-0.4408 0.2469,-0.1932 0.4949,-0.4928 0.7399,-0.9017 z"
       style="fill:none;stroke:#e30016;stroke-width:0.8504;stroke-linecap:butt;stroke-linejoin:miter;stroke-dasharray:none"
       id="path301" />
    <path
       d="m 225.998,190.9018 c 0.5285,-0.024 1.0621,-0.0463 1.6011,-0.0674 -0.0281,0.1177 -0.0693,0.212 -0.1247,0.2837 -0.108,0.1376 -0.2512,0.2317 -0.4274,0.2827 -0.176,0.0487 -0.3427,0.0548 -0.4995,0.0162 -0.1588,-0.0364 -0.314,-0.1628 -0.4677,-0.3767 -0.0323,-0.0442 -0.0597,-0.0901 -0.0818,-0.1385 z m 2.4727,-0.1002 c 0.2128,-0.008 0.4264,-0.0149 0.6409,-0.0222 0.2166,0.254 0.3364,0.4827 0.3574,0.6874 0.0314,0.2814 -0.0299,0.3164 -0.1858,0.1023 -0.1538,-0.2138 -0.3527,-0.4172 -0.5944,-0.6147 -0.0651,-0.0527 -0.1382,-0.1036 -0.2181,-0.1528 z"
       style="fill:none;stroke:#e30016;stroke-width:0.8504;stroke-linecap:butt;stroke-linejoin:miter;stroke-dasharray:none"
       id="path303" />
    <path
       d="m 210.8853,211.5454 c 13.0525,3.7494 22.493,4.5568 29.6727,7.2151 17.0699,6.32 20.395,11.284 24.0379,15.9268 1.5309,1.951 2.9199,5.1986 4.8954,8.5676 2.2232,5.2183 4.319,9.9422 5.8358,12.4772 -6.537,15.9699 -15.1629,28.5928 -24.8548,39.3023 -12.692,11.0987 -25.1883,19.458 -37.3689,23.4003 -8.0918,0.8486 -13.6278,-1.3698 -16.6081,-6.655 1.3807,-15.2065 1.9277,-30.0282 -3.3633,-42.1551 0.1392,-13.7268 -1.3806,-11.5124 -14.728,-25.2546 -2.3675,-3.8927 -2.6087,-7.1828 -0.0467,-12.6597 3.2544,-7.9473 1.3867,-19.8151 8.589,-26.4548 7.8838,-1.6555 16.6084,4.1842 23.939,6.2899 z"
       style="fill:none;stroke:#e30016;stroke-width:0.8504;stroke-linecap:butt;stroke-linejoin:miter;stroke-dasharray:none"
       id="path305" />
    <path
       d="m 210.8853,211.5454 c 7.2479,2.082 13.3812,3.2564 18.633,4.3448 -12.8749,15.8348 -25.9076,30.4573 -39.6114,39.9359 -2.1706,-2.5545 -5.7301,-5.5125 -11.5029,-11.4561 -0.2286,-0.3759 -0.4369,-0.7464 -0.6252,-1.1134 11.4424,4.1488 16.6056,-28.109 17.874,-37.4068 5.2581,1.4601 10.5316,4.3453 15.2325,5.6956 z"
       style="fill:none;stroke:#e30016;stroke-width:0.8504;stroke-linecap:butt;stroke-linejoin:miter;stroke-dasharray:none"
       id="path307" />
    <path
       d="m 275.1395,256.1835 c 0.0402,-0.0956 0.0797,-0.1911 0.1195,-0.2871 -0.0398,0.0957 -0.0796,0.1914 -0.1195,0.2871 z m 0.1241,-0.2986 c 0.011,-0.0263 0.0219,-0.0526 0.0328,-0.0791 -0.0109,0.0263 -0.0218,0.0528 -0.0328,0.0791 z m 0.0635,-0.1528 c 5.6771,1.3316 8.5651,-1.2845 9.8431,-6.5519 3.3112,-4.5545 7.2136,-8.3794 8.6013,-15.1779 0.292,-7.374 -0.3098,-14.6203 -2.2172,-21.6797 -2.7865,-5.6852 -6.877,-7.2396 -11.3326,-7.6372 -7.7064,3.9254 -11.6146,10.4803 -13.7962,18.2307 -1.2405,-10.9009 -2.5878,-21.5345 -4.6809,-30.3024 -0.8684,-1.3738 -1.8235,-2.6557 -2.8454,-3.8644 l -29.7076,-12.7774 24.0681,22.1512 c -6.0109,6.6097 -8.733,13.9024 -10.861,21.3349 15.4743,5.9902 18.6893,10.7586 22.1972,15.2293 1.5309,1.951 2.9199,5.1986 4.8954,8.5676 2.2232,5.2183 4.319,9.9422 5.8358,12.4772 z"
       style="fill:none;stroke:#e30016;stroke-width:0.8504;stroke-linecap:butt;stroke-linejoin:miter;stroke-dasharray:none"
       id="path309" />
    <path
       d="m 131.0767,243.1555 c -0.4369,-7.9377 0.2536,-15.7624 4.0597,-23.2752 -5.7057,2.2555 -12.0808,7.4004 -17.575,10.5047 3.6015,-6.6881 8.5831,-14.5255 13.2447,-20.7891 -16.9975,-2.6965 -34.9851,-11.0851 -53.5871,-23.0046 10.2499,0.965 34.1687,4.284 43.6151,0.4308 -4.2921,-2.2651 -17.0953,-3.6427 -36.276,-19.2869 11.4103,3.255 49.9754,7.1453 59.1459,2.2779 -18.4282,-8.6272 -36.7449,-13.6243 -58.9352,-34.0549 16.3997,12.0696 72.3681,15.8877 107.4868,14.3425 l -54.9795,-34.1408 c 6.396,1.4133 15.3505,1.8543 22.8072,1.9163 19.0557,0.1589 36.2676,-0.9427 45.6355,2.4455 -8.0458,-6.5538 -16.4104,-10.5514 -24.9207,-13.3876 9.6174,1.987 19.2341,4.8452 28.8517,9.6202 -10.2868,-19.292 -27.1292,-31.6426 -45.3328,-42.5527 27.8361,6.6391 54.4327,16.3193 77.1537,35.5133 -13.5429,-18.4635 -26.3015,-35.7079 -41.238,-54.172 21.9939,11.36 41.5919,29.5072 58.0107,56.6631 -1.3969,-11.0702 -4.7973,-22.1406 -8.9216,-33.2114 13.6907,17.3232 25.3574,35.9248 32.5719,57.3382 l -5.6402,-14.4142 c 2.4289,-13.2658 1.9506,-26.8955 1.6608,-40.5016 8.7545,18.9952 11.9911,43.9329 9.7097,74.8128 2.3063,-9.2319 11.9102,-18.4641 24.8315,-27.6966 -10.665,12.3096 -12.4159,29.3946 -18.6236,44.0918 5.2823,-4.785 11.4212,-9.2033 18.1461,-13.3708 -8.9216,9.7108 -15.2829,26.8527 -19.4224,36.2021 -65.1018,0.2197 -117.4487,-12.1589 -161.4789,47.6992 z"
       style="fill:none;stroke:#e30016;stroke-width:0.8504;stroke-linecap:butt;stroke-linejoin:miter;stroke-dasharray:none"
       id="path311" />
    <path
       d="m 98.0306,125.6772 c 8.7464,4.6907 19.9781,7.1894 29.861,8.1887 -9.3505,-1.9977 -20.5111,-4.7717 -29.861,-8.1887 z"
       style="fill:none;stroke:#e30016;stroke-width:0.8504;stroke-linecap:butt;stroke-linejoin:miter;stroke-dasharray:none"
       id="path313" />
    <path
       d="m 87.168,115.9648 c 8.7464,4.6906 19.9781,7.1893 29.861,8.1887 -9.3505,-1.9978 -20.5111,-4.7718 -29.861,-8.1887 z"
       style="fill:none;stroke:#e30016;stroke-width:0.8504;stroke-linecap:butt;stroke-linejoin:miter;stroke-dasharray:none"
       id="path315" />
    <path
       d="m 96.6248,115.5814 c 9.3082,4.9919 21.2612,7.6511 31.7789,8.7146 -9.951,-2.126 -21.8285,-5.0782 -31.7789,-8.7146 z"
       style="fill:none;stroke:#e30016;stroke-width:0.8504;stroke-linecap:butt;stroke-linejoin:miter;stroke-dasharray:none"
       id="path317" />
    <path
       d="m 78.6594,105.152 c -10.9271,-0.4373 46.9777,15.1732 55.1125,12.5521 L 107.0938,105.152 c -2.2733,-1.0696 47.5108,-3.4441 66.7731,-2.7156 L 154.5378,92.053 c 12.8609,1.952 25.5226,5.9 38.0191,11.5016 -7.0717,-3.2239 -9.0578,-6.2992 -16.1787,-10.2877 -5.383,-3.0153 -18.6307,-7.5499 -23.1331,-10.8216 -11.9638,-8.6936 -20.6507,-17.7893 -28.4687,-27.9075 2.7306,1.4323 8.9952,4.8385 16.7233,7.0015 29.2201,8.1785 64.0949,18.5397 83.5357,32.4254 -12.696,-15.1391 -45.7353,-24.4341 -84.2418,-34.7807 -10.7994,-2.9016 -17.062,-6.5987 -24.3064,-13.1284 9.3415,12.4541 18.1388,24.9319 33.8116,37.1101 -24.9136,-6.7963 -54.185,-7.0559 -84.8488,-5.2268 35.7013,-0.0252 65.6773,3.187 86.5911,9.9309 9.5248,3.0712 1.3955,1.1011 -10.3234,0.4426 -10.1014,-0.5674 -22.2093,-1.601 -22.6056,-1.4879 -0.8752,0.2496 37.0447,8.7832 32.5806,10.2794 -4.4642,1.4962 -44.5597,3.3565 -66.4855,4.5039 l 12.4749,1.8207 c 1.9967,2.9823 6.1667,5.2226 11.3248,7.9621 -10.0078,-0.997 -20.0972,-2.8107 -30.3475,-6.2386 z"
       style="fill:none;stroke:#e30016;stroke-width:0.8504;stroke-linecap:butt;stroke-linejoin:miter;stroke-dasharray:none"
       id="path319" />
    <path
       d="m 141.4715,165.5609 a 1.5804,1.5804 0 0 1 1.5804,1.5804 1.5804,1.5804 0 1 1 -1.5804,-1.5804 z"
       style="fill:none;stroke:#e30016;stroke-width:0.8504;stroke-linecap:butt;stroke-linejoin:miter;stroke-dasharray:none"
       id="path321" />
    <path
       d="m 138.9127,177.903 a 1.5804,1.5804 0 0 1 1.5804,1.5804 1.5804,1.5804 0 1 1 -1.5804,-1.5804 z"
       style="fill:none;stroke:#e30016;stroke-width:0.8504;stroke-linecap:butt;stroke-linejoin:miter;stroke-dasharray:none"
       id="path323" />
    <path
       d="m 141.3209,187.0844 a 1.5804,1.9567 0 0 1 1.5804,1.9567 1.5804,1.9567 0 1 1 -1.5804,-1.9567 z"
       style="fill:none;stroke:#e30016;stroke-width:0.8504;stroke-linecap:butt;stroke-linejoin:miter;stroke-dasharray:none"
       id="path325" />
    <path
       d="m 238.3125,142.8332 a 1.5804,1.9567 0 0 1 1.5804,1.9567 1.5804,1.9567 0 1 1 -1.5804,-1.9567 z"
       style="fill:none;stroke:#e30016;stroke-width:0.8504;stroke-linecap:butt;stroke-linejoin:miter;stroke-dasharray:none"
       id="path327" />
    <path
       d="m 242.1054,154.5733 a 1.5804,1.9567 0 0 1 1.5804,1.9567 1.5804,1.9567 0 1 1 -1.5804,-1.9567 z"
       style="fill:none;stroke:#e30016;stroke-width:0.8504;stroke-linecap:butt;stroke-linejoin:miter;stroke-dasharray:none"
       id="path329" />
    <path
       d="m 239.5768,166.3134 a 1.5804,1.9567 0 0 1 1.5804,1.9567 1.5804,1.9567 0 1 1 -1.5804,-1.9567 z"
       style="fill:none;stroke:#e30016;stroke-width:0.8504;stroke-linecap:butt;stroke-linejoin:miter;stroke-dasharray:none"
       id="path331" />
    <path
       d="m 142.2101,195.4302 c 2.2397,-0.2697 5.1495,-2.0225 8.514,-4.7356 21.0459,-15.8142 51.1458,-23.5567 87.5473,-16.913 1.1361,0.2155 2.1919,0.3082 3.1421,0.2393 -5.6406,-4.5494 -14.5181,-5.6724 -23.7082,-6.0111 -3.9636,-0.1461 -8.1084,-0.1366 -12.3356,0.0912 -0.2745,-0.7458 -0.988,-1.2798 -1.8215,-1.2798 -0.9265,0 -1.7055,0.66 -1.8972,1.537 -6.8256,0.5776 -13.7906,1.7637 -20.4963,3.8229 -16.6104,5.1009 -31.0111,14.6166 -37.4288,21.3608 -0.5511,0.5887 -1.0571,1.2175 -1.5158,1.8883 z"
       style="fill:none;stroke:#e30016;stroke-width:0.8504;stroke-linecap:butt;stroke-linejoin:miter;stroke-dasharray:none"
       id="path333" />
    <path
       d="m 167.4309,163.6397 c 0.0729,2.6141 1.6573,4.8444 5.6308,6.8739 -2.9009,0.1216 -5.3696,0.7922 -7.8801,1.6945 0.3902,-2.8033 1.0796,-5.5704 2.2493,-8.5684 z m 26.0399,-20.5126 c 1.7565,-0.3642 2.7485,-0.004 2.0585,1.9502 l -6.9339,5.092 c -0.0771,-0.018 -0.1543,-0.0357 -0.231,-0.0531 -16.4549,-3.7336 -24.5166,14.0905 -13.2034,17.7129 3.0123,0.8619 5.8448,0.4419 10.0758,-4.117 5.8441,-11.1068 -12.0784,-11.038 -9.4257,-2.0585 1.4793,1.78 3.375,2.4778 6.7571,-0.69 4.0353,-0.4211 -2.0385,7.9248 -7.9118,3.3957 -2.3519,-2.3115 -2.0509,-4.7764 -1.514,-7.1477 1.239,-3.0623 5.8286,-5.6734 11.5527,-4.2254 2.7993,1.0648 4.6309,3.3554 4.3337,8.3424 -1.2714,4.5657 -5.2389,7.661 -11.0509,9.7507 -5.3294,2.3238 -10.3144,3.3888 -15.644,4.2666 0.4721,-5.9949 1.7453,-11.9564 4.9007,-17.9512 1.884,-3.6949 5.4394,-7.5555 10.4183,-9.3922 3.3224,-0.5331 6.6452,-0.9365 9.9674,-0.4334 z"
       style="fill:none;stroke:#e30016;stroke-width:0.5669;stroke-linecap:butt;stroke-linejoin:miter;stroke-dasharray:none"
       id="path335" />
    <path
       d="m 187.5475,194.37 4.7864,0.271 c 9.8554,-7.5255 24.2064,-11.8403 37.6587,-16.7974 l -8.489,-3.1609 c -12.8156,6.7455 -26.9382,13.1841 -33.9561,19.6873 z"
       style="fill:none;stroke:#e30016;stroke-width:0.8504;stroke-linecap:butt;stroke-linejoin:miter;stroke-dasharray:none"
       id="path337" />
    <path
       d="m 152.3791,192.9282 c 7.8531,0.3772 15.4577,0.9618 21.8631,2.5463 l 8.6551,9.9788 -6.1454,-7.1325 c -10.3081,-1.6827 -20.3327,-1.4964 -29.9162,-1.2483 z"
       style="fill:none;stroke:#e30016;stroke-width:0.8504;stroke-linecap:butt;stroke-linejoin:miter;stroke-dasharray:none"
       id="path339" />
    <path
       d="m 141.8381,204.3727 c 1.3782,11.6266 2.1141,23.5342 3.0603,35.3515 0.0109,-0.048 0.0306,-0.0925 0.0624,-0.1325 0.9033,-1.1344 1.9263,-2.2306 3.0504,-3.3059 -0.232,-9.9045 -1.4171,-19.5899 -3.1172,-28.7128 -0.3086,-1.6559 -0.5581,-3.3261 -0.8238,-4.9965 -0.7476,0.5894 -1.4913,1.1885 -2.2321,1.7962 z m 3.1675,36.5695 c 0.006,0.0669 0.0125,0.1336 0.0187,0.2002 0.001,0.0118 0.002,0.0237 0.003,0.0355 0.005,0.0491 0.009,0.0981 0.0136,0.147 0.005,0.0488 0.009,0.098 0.0138,0.1465 0.003,0.031 0.005,0.0619 0.008,0.0927 0.0129,0.1398 0.0257,0.2785 0.0385,0.4165 z m 0.1681,1.8167 c 0.0129,0.1403 0.0258,0.2796 0.0388,0.418 -0.013,-0.1383 -0.0259,-0.2777 -0.0388,-0.418 z m 0.0407,0.4392 c 0.0337,0.3619 0.0672,0.7178 0.1009,1.0685 -0.0337,-0.3509 -0.0672,-0.7066 -0.1009,-1.0685 z m 0.1111,1.1744 c 0.0118,0.1227 0.0238,0.2451 0.0358,0.3665 z m 0.0429,0.4379 c 0.0231,0.2352 0.0464,0.468 0.0703,0.6989 -0.0239,-0.2309 -0.0472,-0.4637 -0.0703,-0.6989 z m 0.0779,0.7729 c 0.009,0.0862 0.0181,0.1724 0.0271,0.2581 -0.009,-0.0859 -0.0181,-0.1719 -0.0271,-0.2581 z m 0.0314,0.2976 c 0.0914,0.8608 0.1896,1.6943 0.3022,2.5123 -0.1125,-0.8179 -0.2108,-1.6515 -0.3022,-2.5123 z m 0.3036,2.5228 c 0.014,0.1017 0.0284,0.2032 0.0429,0.3046 -0.0145,-0.1014 -0.0289,-0.2029 -0.0429,-0.3046 z"
       style="fill:none;stroke:#e30016;stroke-width:0.8504;stroke-linecap:butt;stroke-linejoin:miter;stroke-dasharray:none"
       id="path341" />
    <path
       d="m 225.3885,136.6874 c 25.3414,6.6188 48.6661,23.2475 68.6822,71.3298 0.2608,2.9201 -0.8437,4.3007 -2.2774,4.2225 -10.4822,-31.574 -18.4704,-48.4457 -42.1586,-60.6554 -1.38,7.2767 -1.5442,14.5533 -0.493,21.8296 5.3454,3.0975 9.6694,6.1955 13.2946,9.2933 -6.5182,-3.8943 -13.7893,-7.2502 -22.7169,-9.4224 l -4.7758,-27.2345 6.7847,1.8717 c -1.1178,-0.4676 -2.2623,-0.9294 -3.4412,-1.3853 z"
       style="fill:none;stroke:#e30016;stroke-width:0.216;stroke-linecap:butt;stroke-linejoin:miter;stroke-dasharray:none"
       id="path343" />
    <path
       d="m 286.6336,210.6206 -5.6048,6.3336 c -1.6414,1.9324 -3.2827,4.2453 -4.9244,7.0172 0.726,2.9954 1.8716,5.9911 3.9395,8.987 l -3.5702,4.5551 -0.1231,5.5399 -1.3542,3.0777 -2.3391,2.3391 2.4447,-2.4504 6.2961,-0.0118 c 1.2639,-1.5266 2.7303,-3.2845 5.1706,-6.1555 -0.3418,-3.9808 -0.2557,-7.9615 0.1231,-11.9416 -1.3137,-2.0064 -2.727,-3.5168 -4.1857,-4.8013 l -3.0778,-2.5853 -0.5499,-0.6155 2.0958,-2.8975 z"
       style="fill:none;stroke:#e30016;stroke-width:0.8504;stroke-linecap:butt;stroke-linejoin:miter;stroke-dasharray:none"
       id="path345" />
    <path
       d="m 283.1006,214.7102 c 8.8554,3.1304 7.457,10.8924 7.2009,20.1981"
       style="fill:none;stroke:#e30016;stroke-width:0.8504;stroke-linecap:butt;stroke-linejoin:miter;stroke-dasharray:none"
       id="path347" />
    <path
       d="m 148.1916,236.1149 c 2.2666,15.0734 5.4928,28.9596 15.445,41.1589 11.9796,14.6846 22.2564,27.4266 30.0847,43.2306 l -0.1484,0.1873 c -0.7855,-0.303 -1.5742,-0.6313 -2.3675,-0.9875 -2.9934,-4.5893 -26.7331,-31.7462 -39.852,-55.3022 -5.4119,-9.7177 -5.5219,-14.8031 -6.41,-24.1208 -0.0185,-0.2296 -0.1268,-0.5082 0.0174,-0.6895 0.9513,-1.1948 2.0358,-2.3466 3.2308,-3.4768 z"
       style="fill:none;stroke:#e30016;stroke-width:0.8504;stroke-linecap:butt;stroke-linejoin:miter;stroke-dasharray:none"
       id="path349" />
    <path
       d="m 151.829,389.3326 c 0.1508,-11.3034 -5.7698,-52.4241 -6.9697,-74.8502 -0.4566,-8.537 5.4364,-10.2888 10.8244,-14.0861 l 17.4916,-9.3617 113.3261,-3.9418 c 4.9616,1.2396 28.0545,3.0198 14.7816,9.1153 -11.4631,0.2578 -22.813,1.6443 -33.9978,4.6809 -9.8599,4.0717 -15.3317,11.838 -19.2161,20.9407 L 230.8238,372.58 c -3.2028,10.7662 -1.6948,20.1005 2.5092,24.3855 7.0414,7.2594 14.8001,6.1653 23.6051,5.8447 21.6796,-4.6961 43.3592,-13.108 65.0393,-23.8248 8.6425,-3.9903 14.3497,-10.2871 15.7671,-19.9552 1.4774,-15.5205 1.97,-31.0412 1.4781,-46.5622 0.287,-9.9158 -5.4979,-17.3477 -14.0425,-23.6507 -5.9508,-2.4816 -20.8131,-6.2364 -46.4306,-11.5281 l -111.7925,7.578 c -24.9968,6.5113 -59.5159,16.716 -53.0932,44.9893 l 6.682,52.4644 c 0.8036,11.733 5.927,18.4913 16.2641,19.2458 6.5768,0.2205 11.9105,-2.6294 15.0191,-12.2341 z"
       style="fill:none;stroke:#e30016;stroke-width:0.216;stroke-linecap:butt;stroke-linejoin:miter;stroke-dasharray:none"
       id="path351" />
    <path
       d="m 245.0371,402.808 c -1.0377,-2.2131 -1.1854,-4.8468 0.4637,-8.33 l 21.9859,-59.2663 c 2.8216,-8.284 6.186,-16.1644 20.3686,-15.9998 2.0642,-0.2274 4.1286,-0.2556 6.1933,-0.1936 l 16.454,-9.4568 c 4.7942,-1.6104 9.7331,-2.354 14.8166,-2.2305 l -6.2134,-4.4609 c 4.089,0.3769 8.1781,0.5191 12.2675,0.3186 l -12.9048,-10.3556 -4.9388,-1.295 -7.9659,1.344 c -0.1501,0.2178 -0.2881,0.4198 -0.4203,0.6085 2.1804,-3.9591 -14.5116,-5.3658 -18.6421,-6.3978 l -0.6542,0.0227 0.4362,-8.2486 c 21.033,4.4694 33.5555,7.7229 38.8967,9.9504 8.5446,6.303 14.3295,13.7349 14.0425,23.6507 0.4919,15.521 -7e-4,31.0417 -1.4781,46.5622 -1.4174,9.6681 -7.1246,15.9649 -15.7671,19.9552 -21.6801,10.7168 -43.3597,19.1287 -65.0393,23.8248 -4.1926,0.1526 -8.1474,0.4798 -11.901,-0.002 z m 59.7474,-108.8255 c -0.5353,0.6924 -1.0773,1.1649 -2.1109,1.5286 0.9935,-0.5457 1.6846,-1.0543 2.1109,-1.5286 z m -6.3293,2.3124 c -2.7166,0.3016 -5.9078,0.4517 -9.0759,0.6121 3.0163,-0.2929 6.0421,-0.4935 9.0759,-0.6121 z"
       style="fill:none;stroke:#e30016;stroke-width:0.216;stroke-linecap:butt;stroke-linejoin:miter;stroke-dasharray:none"
       id="path353" />
    <path
       d="m 305.1997,293.497 c -0.1228,0.1755 -0.2407,0.339 -0.359,0.4919 -0.4262,0.4743 -1.1173,0.9829 -2.1109,1.5286 -0.6191,0.2178 -1.4141,0.3969 -2.491,0.5601 -0.5488,0.0833 -1.1267,0.1571 -1.7273,0.2237 -3.0339,0.1186 -6.0597,0.3192 -9.0759,0.6121 -1.3718,0.0696 -2.7391,0.1412 -4.0621,0.2276 l 0.5299,-10.0191 0.6542,-0.0227 c 4.1305,1.032 20.8226,2.4387 18.6421,6.3978 z"
       style="fill:none;stroke:#e30016;stroke-width:0.216;stroke-linecap:butt;stroke-linejoin:miter;stroke-dasharray:none"
       id="path355" />
    <path
       d="m 286.5223,282.6912 37.3878,6.8635 c 3.1511,1.9239 4.8255,4.0218 3.2511,6.5022 -7.3889,1.3563 -13.6905,4.0175 -19.6873,7.0441 -11.7815,1.2819 -22.7453,4.6063 -33.4142,8.6696 -7.6925,2.9261 -12.2979,8.2782 -15.1719,14.9913 l -21.1581,57.8572 c -1.5598,4.7927 -2.1665,9.5853 -2.1214,14.3784 -1.368,-1.2198 -2.6289,-2.4662 -3.6535,-3.7714 1.1,-4.8714 1.4475,-9.0655 3.3,-14.6141 l 20.5446,-56.2557 c 3.321,-6.6989 4.4761,-10.2822 15.672,-15.8027 10.5547,-4.0474 21.348,-7.5685 33.2958,-8.5512 l 17.1267,-6.8507 c 0.19,-1.4199 -0.3145,-2.5619 -1.5135,-3.4253 l -33.2975,-6.2931 z"
       style="fill:none;stroke:#e30016;stroke-width:0.216;stroke-linecap:butt;stroke-linejoin:miter;stroke-dasharray:none"
       id="path357" />
    <path
       d="m 169.2454,204.9715 a 1.4773,1.4773 0 0 1 1.4773,1.4773 1.4773,1.4773 0 1 1 -1.4773,-1.4773 z"
       style="fill:none;stroke:#e30016;stroke-width:0.216;stroke-linecap:butt;stroke-linejoin:miter;stroke-dasharray:none"
       id="path359" />
    <path
       d="m 227.411,191.9983 a 1.4773,1.4773 0 0 1 1.4773,1.4773 1.4773,1.4773 0 1 1 -1.4773,-1.4773 z"
       style="fill:none;stroke:#e30016;stroke-width:0.216;stroke-linecap:butt;stroke-linejoin:miter;stroke-dasharray:none"
       id="path361" />
    <path
       d="m 187.8115,343.539 0.9721,6.0113 -4.1423,7.01 4.0247,-6.9848 -0.9204,-6.0544 c -25.5848,10.0548 -34.152,28.3465 -35.8399,42.9254 l 4.377,0.8622 c 4.9921,0.4778 10.8424,0.1635 14.9759,1.4339 l 16.7484,0.9559 c 13.8148,-0.0322 27.6299,-0.3019 41.4453,-1.4185 -0.7181,-4.4242 -0.3688,-9.8502 1.3715,-15.7 l 17.2453,-50.7503 c 3.8844,-9.1027 9.3562,-16.869 19.2161,-20.9407 11.1848,-3.0366 22.5347,-4.4231 33.9978,-4.6809 8.192,-3.7621 2.5304,-5.8797 -4.1706,-7.2416 l -15.8681,-1.6908 -24.9128,0.8664 c -9.7606,12.2559 -20.9556,22.0285 -32.3714,31.0199 -11.5958,5.298 -21.7613,5.4787 -32.7547,0.5422 -0.0684,-0.105 -7.179,-9.06 -7.2687,-9.1882 0.432,3.4553 4.4229,32.8114 3.8748,33.023 z"
       style="fill:none;stroke:#e30016;stroke-width:0.216;stroke-linecap:butt;stroke-linejoin:miter;stroke-dasharray:none"
       id="path363" />
    <path
       d="m 202.893,336.555 c 1.9732,1.153 4.1271,1.2224 6.4619,0.2084 12.0234,-9.5185 22.4545,-19.3025 32.3095,-29.1828 l 13.5491,-17.7181 -0.4332,0.1926 c -9.3871,11.3684 -20.0046,20.5882 -30.8202,29.1069 -10.1761,4.6494 -19.2506,5.3573 -28.7499,2.1248 l -0.0298,0.0514 c 1.891,5.0724 4.0087,10.1447 7.7126,15.2168 z"
       style="fill:none;stroke:#e30016;stroke-width:0.216;stroke-linecap:butt;stroke-linejoin:miter;stroke-dasharray:none"
       id="path365" />
    <path
       d="m 151.8198,387.9359 c 1.3823,-15.7141 10.0278,-36.1375 40.5488,-46.0121 l -1.4046,-22.5735 c -2.2695,-3.2417 -11.2296,-13.8226 -20.8246,-26.6908 l -14.4557,7.7368 c -5.388,3.7973 -11.281,5.5491 -10.8244,14.0861 1.155,21.5868 6.6826,60.4901 6.9605,73.4535 z"
       style="fill:none;stroke:#e30016;stroke-width:0.216;stroke-linecap:butt;stroke-linejoin:miter;stroke-dasharray:none"
       id="path367" />
    <path
       d="m 167.4843,289.0596 c -9.6029,3.0959 -18.4444,6.9536 -26.525,11.5725 -7.9561,4.0497 -8.1153,9.5649 -7.161,15.2896 0.3881,27.5123 3.2807,52.6671 6.5308,77.4854 0.5385,2.78 1.4177,5.2192 2.7945,7.1608 l -3.4931,0.9606 c -1.1807,-2.8605 -2.204,-6.2975 -2.8818,-11.0032 -2.864,-23.2819 -5.3066,-47.5218 -6.3239,-75.0015 -0.2185,-5.9541 0.1626,-10.1236 3.8575,-13.7062 9.1013,-5.9102 19.7101,-10.9165 31.3709,-15.2907 0.6097,0.8506 1.2204,1.6953 1.8311,2.5327 z"
       style="fill:none;stroke:#e30016;stroke-width:0.216;stroke-linecap:butt;stroke-linejoin:miter;stroke-dasharray:none"
       id="path369" />
    <path
       d="m 186.4602,327.8456 7.7666,11.1982 0.5418,9.7534 6.141,10.2952 17.4015,-12.3186 -13.9697,13.4023 -7.7666,8.6696 -5.4709,14.1146 -9.5203,-18.8106 -0.9031,23.2996 -5.7798,-5.9604 -7.4053,-0.5418 -7.0441,-5.2379 7.9472,-10.1146 c 0,0 -0.7225,-4.3348 0.1806,-5.2379 0.9031,-0.9031 10.4758,-4.1542 10.4758,-4.1542 l 5.5992,0.1806 4.158,-6.9728 z"
       style="fill:none;stroke:#e30016;stroke-width:0.216;stroke-linecap:butt;stroke-linejoin:miter;stroke-dasharray:none"
       id="path371" />
    <path
       d="m 207.8358,355.7663 14.2964,-12.2968 12.5265,-8.9408 c -6.4855,10.2804 -13.7874,19.0297 -21.6477,26.7311 -8.3807,7.7861 -14.6336,15.5724 -19.1236,23.3593 l -1.3495,1.3495 -1.3495,-3.0112 4.1133,-14.6024 c 0,0 12.4237,-12.4936 12.5341,-12.5887 z"
       style="fill:none;stroke:#e30016;stroke-width:0.216;stroke-linecap:butt;stroke-linejoin:miter;stroke-dasharray:none"
       id="path373" />
    <path
       d="m 199.2853,386.9405 21.0231,-7.8651 14.4312,-24.3617 -17.3028,18.0697 z"
       style="fill:none;stroke:#e30016;stroke-width:0.216;stroke-linecap:butt;stroke-linejoin:miter;stroke-dasharray:none"
       id="path375" />
    <path
       d="m 229.4543,388.2939 c 0.9533,-3.1003 2.3616,-7.6585 3.5149,-12.2235 4.7979,-18.9895 14.1707,-39.94 22.6675,-60.8229 1.5852,-1.7207 3.873,-2.3378 6.8635,-1.8513 l -1.0838,4.3348 4.5155,1.6256 9.0308,-0.1807 -5.9603,-1.9868 -1.2643,-1.9867 -1.445,-1.0837 -1.6255,-2.7093 -3.206,-1.4751 c 0.0801,-1.2039 1.5401,-2.5584 3.0253,-3.7628 8.3411,-6.115 22.3648,-7.5989 33.2659,-9.8471 -10.264,0.4443 -20.4321,1.84 -30.4676,4.5646 -9.8599,4.0717 -15.3317,11.838 -19.2161,20.9407 L 230.8238,372.58 c -1.742,5.8555 -2.0904,11.2875 -1.3695,15.7139 z"
       style="fill:none;stroke:#e30016;stroke-width:0.216;stroke-linecap:butt;stroke-linejoin:miter;stroke-dasharray:none"
       id="path377" />
    <path
       d="m 165.6943,285.1974 c -24.878,6.528 -58.1457,16.8587 -51.8305,44.6591 l 6.682,52.4644 c 0.5054,7.3789 2.7202,12.7892 6.8652,15.9769 l 0.1826,0.0161 c -2.1626,-3.4253 -4.1616,-11.7607 -5.9635,-26.0225 -1.4175,-7.6967 -5.5443,-47.4864 -2.5308,-48.8045 l 7.998,-3.4982 c 2.5998,-1.1369 6.3216,-8.4288 6.3216,-8.4288 l 2.8598,-1.3546 3.0103,-1.6557 1.5051,-1.3546 1.6557,0.4515 0.4515,3.9134 1.8062,-4.2144 -1.5051,-1.5051 -2.8598,-1.6557 -10.0845,3.6123 c -1.0544,-7.0609 13.3071,-13.7287 36.1235,-21.2225 z"
       style="fill:none;stroke:#e30016;stroke-width:0.216;stroke-linecap:butt;stroke-linejoin:miter;stroke-dasharray:none"
       id="path379" />
    <path
       d="m 302.049,148.6087 c -2.664,7.8658 -4.6796,16.0782 -7.8805,23.6563 5.2824,-4.7849 11.4212,-9.2032 18.1461,-13.3708 -7.8493,8.5438 -13.7164,22.839 -17.8325,32.5192 -3.315,-9.8811 -7.8325,-18.7084 -13.4072,-26.3714 7.3644,-7.274 16.0121,-13.9132 20.9741,-16.4333 z"
       style="fill:none;stroke:#e30016;stroke-width:0.8504;stroke-linecap:butt;stroke-linejoin:miter;stroke-dasharray:none"
       id="path381" />
    <path
       d="m 326.2727,153.2058 -0.6262,0.9519 -9.8431,31.7439 -18.4557,15.7489 0.0407,0.6785 c -0.0544,-0.4401 -0.1068,-0.8892 -0.1515,-1.3477 -2.1292,-8.8011 -5.1347,-16.8866 -8.9248,-24.1977 1.8147,-4.3827 27.8828,-25.6226 28.6412,-24.4846 l -8.3626,23.8669 17.2704,-29.1452 z"
       style="fill:none;stroke:#e30016;stroke-width:0.8504;stroke-linecap:butt;stroke-linejoin:miter;stroke-dasharray:none"
       id="path383" />
    <path
       d="m 336.617,259.0468 0.171,0.0191 0.0464,0.2523 -11.9779,4.9474 -8.39,-1.8945 -7.0366,-2.1652 -26.2523,-2.1651 -11.1652,-39.173 2.9834,-10.9395 16.612,3.8378 14.7797,9.9919 8.5347,24.1471 -14.5715,-14.9879 13.947,18.943 8.1035,11.5821 z"
       style="fill:none;stroke:#e30016;stroke-width:0.8504;stroke-linecap:butt;stroke-linejoin:miter;stroke-dasharray:none"
       id="path385" />
    <path
       d="m 152.0136,214.363 c 3.2997,-4.3991 12.4154,-8.7163 19.4535,-10.807 2.8331,-0.8415 5.9854,1.0012 8.1737,1.5559 -8.7828,6.823 -14.5188,13.9461 -27.6272,9.2511 z"
       style="fill:none;stroke:#e30016;stroke-width:0.8504;stroke-linecap:butt;stroke-linejoin:miter;stroke-dasharray:none"
       id="path387" />
    <path
       d="m 207.3322,196.3245 c 0.8521,-1.9482 2.2811,-2.943 5.1845,-4.3714 7.465,-0.8752 16.4045,-1.3326 26.9536,-1.3458 -3.5582,6.9061 -8.7655,8.4091 -14.8619,8.8122 -3.3411,0.221 -7.2409,0.4866 -11.8713,-0.2534 -2.1179,-0.3384 -3.7926,-1.5795 -5.4049,-2.8416 z"
       style="fill:none;stroke:#e30016;stroke-width:0.8504;stroke-linecap:butt;stroke-linejoin:miter;stroke-dasharray:none"
       id="path389" />
    <path
       d="m 272.1444,211.3498 c -1.4223,3.5386 -0.9713,7.0774 -1.4571,10.6164 5.4266,-9.6338 11.4269,-16.4939 20.1919,-9.9919 l 0.2522,-0.4638 c -2.769,-5.0233 -6.6742,-6.4471 -10.9097,-6.8251 -3.3622,1.7126 -6.0009,3.9262 -8.0892,6.5205 z"
       style="fill:none;stroke:#e30016;stroke-width:0.8504;stroke-linecap:butt;stroke-linejoin:miter;stroke-dasharray:none"
       id="path391" />
  </g>
</svg>
